ISO-10303-21;
HEADER;
FILE_DESCRIPTION(('FreeCAD Model'),'2;1');
FILE_NAME('Open CASCADE Shape Model','2026-10-05T20:54:21',('FreeCAD'),(
    'FreeCAD'),'Open CASCADE STEP processor 7.8','FreeCAD','Unknown');
FILE_SCHEMA(('AUTOMOTIVE_DESIGN { 1 0 10303 214 1 1 1 1 }'));
ENDSEC;
DATA;
#1 = APPLICATION_PROTOCOL_DEFINITION('international standard',
  'automotive_design',2000,#2);
#2 = APPLICATION_CONTEXT(
  'core data for automotive mechanical design processes');
#3 = SHAPE_DEFINITION_REPRESENTATION(#4,#10);
#4 = PRODUCT_DEFINITION_SHAPE('','',#5);
#5 = PRODUCT_DEFINITION('design','',#6,#9);
#6 = PRODUCT_DEFINITION_FORMATION('','',#7);
#7 = PRODUCT('Open CASCADE STEP translator 7.8 2',
  'Open CASCADE STEP translator 7.8 2','',(#8));
#8 = PRODUCT_CONTEXT('',#2,'mechanical');
#9 = PRODUCT_DEFINITION_CONTEXT('part definition',#2,'design');
#10 = ADVANCED_BREP_SHAPE_REPRESENTATION('',(#11,#15),#1715);
#11 = AXIS2_PLACEMENT_3D('',#12,#13,#14);
#12 = CARTESIAN_POINT('',(0.,0.,0.));
#13 = DIRECTION('',(0.,0.,1.));
#14 = DIRECTION('',(1.,0.,-0.));
#15 = MANIFOLD_SOLID_BREP('',#16);
#16 = CLOSED_SHELL('',(#17,#57,#168,#193,#218,#335,#481,#498,#523,#540,
    #618,#643,#668,#693,#718,#743,#834,#859,#883,#908,#932,#957,#1110,
    #1127,#1144,#1161,#1178,#1195,#1212,#1229,#1246,#1263,#1280,#1297,
    #1314,#1331,#1348,#1365,#1392,#1409,#1426,#1443,#1460,#1477,#1489,
    #1509,#1529,#1549,#1569,#1635,#1647,#1664,#1681,#1698));
#17 = ADVANCED_FACE('',(#18),#52,.F.);
#18 = FACE_BOUND('',#19,.F.);
#19 = EDGE_LOOP('',(#20,#30,#38,#46));
#20 = ORIENTED_EDGE('',*,*,#21,.F.);
#21 = EDGE_CURVE('',#22,#24,#26,.T.);
#22 = VERTEX_POINT('',#23);
#23 = CARTESIAN_POINT('',(-2.5,0.5,26.6));
#24 = VERTEX_POINT('',#25);
#25 = CARTESIAN_POINT('',(-2.5,105.25,26.6));
#26 = LINE('',#27,#28);
#27 = CARTESIAN_POINT('',(-2.5,-2.5,26.6));
#28 = VECTOR('',#29,1.);
#29 = DIRECTION('',(-0.,1.,0.));
#30 = ORIENTED_EDGE('',*,*,#31,.F.);
#31 = EDGE_CURVE('',#32,#22,#34,.T.);
#32 = VERTEX_POINT('',#33);
#33 = CARTESIAN_POINT('',(-2.5,0.5,8.6));
#34 = LINE('',#35,#36);
#35 = CARTESIAN_POINT('',(-2.5,0.5,8.6));
#36 = VECTOR('',#37,1.);
#37 = DIRECTION('',(0.,0.,1.));
#38 = ORIENTED_EDGE('',*,*,#39,.T.);
#39 = EDGE_CURVE('',#32,#40,#42,.T.);
#40 = VERTEX_POINT('',#41);
#41 = CARTESIAN_POINT('',(-2.5,105.25,8.6));
#42 = LINE('',#43,#44);
#43 = CARTESIAN_POINT('',(-2.5,-2.5,8.6));
#44 = VECTOR('',#45,1.);
#45 = DIRECTION('',(-0.,1.,0.));
#46 = ORIENTED_EDGE('',*,*,#47,.T.);
#47 = EDGE_CURVE('',#40,#24,#48,.T.);
#48 = LINE('',#49,#50);
#49 = CARTESIAN_POINT('',(-2.5,105.25,8.6));
#50 = VECTOR('',#51,1.);
#51 = DIRECTION('',(0.,0.,1.));
#52 = PLANE('',#53);
#53 = AXIS2_PLACEMENT_3D('',#54,#55,#56);
#54 = CARTESIAN_POINT('',(-2.5,-2.5,8.6));
#55 = DIRECTION('',(1.,0.,-0.));
#56 = DIRECTION('',(0.,0.,1.));
#57 = ADVANCED_FACE('',(#58,#119,#130,#141,#152),#163,.T.);
#58 = FACE_BOUND('',#59,.T.);
#59 = EDGE_LOOP('',(#60,#61,#70,#78,#87,#95,#104,#112));
#60 = ORIENTED_EDGE('',*,*,#21,.F.);
#61 = ORIENTED_EDGE('',*,*,#62,.T.);
#62 = EDGE_CURVE('',#22,#63,#65,.T.);
#63 = VERTEX_POINT('',#64);
#64 = CARTESIAN_POINT('',(0.5,-2.5,26.6));
#65 = CIRCLE('',#66,3.);
#66 = AXIS2_PLACEMENT_3D('',#67,#68,#69);
#67 = CARTESIAN_POINT('',(0.5,0.5,26.6));
#68 = DIRECTION('',(0.,0.,1.));
#69 = DIRECTION('',(0.,-1.,0.));
#70 = ORIENTED_EDGE('',*,*,#71,.T.);
#71 = EDGE_CURVE('',#63,#72,#74,.T.);
#72 = VERTEX_POINT('',#73);
#73 = CARTESIAN_POINT('',(99.5,-2.5,26.6));
#74 = LINE('',#75,#76);
#75 = CARTESIAN_POINT('',(-2.5,-2.5,26.6));
#76 = VECTOR('',#77,1.);
#77 = DIRECTION('',(1.,0.,-0.));
#78 = ORIENTED_EDGE('',*,*,#79,.F.);
#79 = EDGE_CURVE('',#80,#72,#82,.T.);
#80 = VERTEX_POINT('',#81);
#81 = CARTESIAN_POINT('',(102.5,0.5,26.6));
#82 = CIRCLE('',#83,3.);
#83 = AXIS2_PLACEMENT_3D('',#84,#85,#86);
#84 = CARTESIAN_POINT('',(99.5,0.5,26.6));
#85 = DIRECTION('',(-0.,-0.,-1.));
#86 = DIRECTION('',(0.,-1.,0.));
#87 = ORIENTED_EDGE('',*,*,#88,.T.);
#88 = EDGE_CURVE('',#80,#89,#91,.T.);
#89 = VERTEX_POINT('',#90);
#90 = CARTESIAN_POINT('',(102.5,105.25,26.6));
#91 = LINE('',#92,#93);
#92 = CARTESIAN_POINT('',(102.5,-2.5,26.6));
#93 = VECTOR('',#94,1.);
#94 = DIRECTION('',(-0.,1.,0.));
#95 = ORIENTED_EDGE('',*,*,#96,.T.);
#96 = EDGE_CURVE('',#89,#97,#99,.T.);
#97 = VERTEX_POINT('',#98);
#98 = CARTESIAN_POINT('',(99.5,108.25,26.6));
#99 = CIRCLE('',#100,3.);
#100 = AXIS2_PLACEMENT_3D('',#101,#102,#103);
#101 = CARTESIAN_POINT('',(99.5,105.25,26.6));
#102 = DIRECTION('',(0.,0.,1.));
#103 = DIRECTION('',(0.,-1.,0.));
#104 = ORIENTED_EDGE('',*,*,#105,.F.);
#105 = EDGE_CURVE('',#106,#97,#108,.T.);
#106 = VERTEX_POINT('',#107);
#107 = CARTESIAN_POINT('',(0.5,108.25,26.6));
#108 = LINE('',#109,#110);
#109 = CARTESIAN_POINT('',(-2.5,108.25,26.6));
#110 = VECTOR('',#111,1.);
#111 = DIRECTION('',(1.,0.,-0.));
#112 = ORIENTED_EDGE('',*,*,#113,.F.);
#113 = EDGE_CURVE('',#24,#106,#114,.T.);
#114 = CIRCLE('',#115,3.);
#115 = AXIS2_PLACEMENT_3D('',#116,#117,#118);
#116 = CARTESIAN_POINT('',(0.5,105.25,26.6));
#117 = DIRECTION('',(-0.,-0.,-1.));
#118 = DIRECTION('',(0.,-1.,0.));
#119 = FACE_BOUND('',#120,.T.);
#120 = EDGE_LOOP('',(#121));
#121 = ORIENTED_EDGE('',*,*,#122,.F.);
#122 = EDGE_CURVE('',#123,#123,#125,.T.);
#123 = VERTEX_POINT('',#124);
#124 = CARTESIAN_POINT('',(7.2,5.5,26.6));
#125 = CIRCLE('',#126,1.7);
#126 = AXIS2_PLACEMENT_3D('',#127,#128,#129);
#127 = CARTESIAN_POINT('',(5.5,5.5,26.6));
#128 = DIRECTION('',(0.,0.,1.));
#129 = DIRECTION('',(1.,0.,-0.));
#130 = FACE_BOUND('',#131,.T.);
#131 = EDGE_LOOP('',(#132));
#132 = ORIENTED_EDGE('',*,*,#133,.F.);
#133 = EDGE_CURVE('',#134,#134,#136,.T.);
#134 = VERTEX_POINT('',#135);
#135 = CARTESIAN_POINT('',(96.2,5.5,26.6));
#136 = CIRCLE('',#137,1.7);
#137 = AXIS2_PLACEMENT_3D('',#138,#139,#140);
#138 = CARTESIAN_POINT('',(94.5,5.5,26.6));
#139 = DIRECTION('',(0.,0.,1.));
#140 = DIRECTION('',(1.,0.,-0.));
#141 = FACE_BOUND('',#142,.T.);
#142 = EDGE_LOOP('',(#143));
#143 = ORIENTED_EDGE('',*,*,#144,.F.);
#144 = EDGE_CURVE('',#145,#145,#147,.T.);
#145 = VERTEX_POINT('',#146);
#146 = CARTESIAN_POINT('',(7.2,94.5,26.6));
#147 = CIRCLE('',#148,1.7);
#148 = AXIS2_PLACEMENT_3D('',#149,#150,#151);
#149 = CARTESIAN_POINT('',(5.5,94.5,26.6));
#150 = DIRECTION('',(0.,0.,1.));
#151 = DIRECTION('',(1.,0.,-0.));
#152 = FACE_BOUND('',#153,.T.);
#153 = EDGE_LOOP('',(#154));
#154 = ORIENTED_EDGE('',*,*,#155,.F.);
#155 = EDGE_CURVE('',#156,#156,#158,.T.);
#156 = VERTEX_POINT('',#157);
#157 = CARTESIAN_POINT('',(96.2,94.5,26.6));
#158 = CIRCLE('',#159,1.7);
#159 = AXIS2_PLACEMENT_3D('',#160,#161,#162);
#160 = CARTESIAN_POINT('',(94.5,94.5,26.6));
#161 = DIRECTION('',(0.,0.,1.));
#162 = DIRECTION('',(1.,0.,-0.));
#163 = PLANE('',#164);
#164 = AXIS2_PLACEMENT_3D('',#165,#166,#167);
#165 = CARTESIAN_POINT('',(-2.5,-2.5,26.6));
#166 = DIRECTION('',(0.,0.,1.));
#167 = DIRECTION('',(1.,0.,-0.));
#168 = ADVANCED_FACE('',(#169),#188,.T.);
#169 = FACE_BOUND('',#170,.T.);
#170 = EDGE_LOOP('',(#171,#180,#186,#187));
#171 = ORIENTED_EDGE('',*,*,#172,.T.);
#172 = EDGE_CURVE('',#32,#173,#175,.T.);
#173 = VERTEX_POINT('',#174);
#174 = CARTESIAN_POINT('',(0.5,-2.5,8.6));
#175 = CIRCLE('',#176,3.);
#176 = AXIS2_PLACEMENT_3D('',#177,#178,#179);
#177 = CARTESIAN_POINT('',(0.5,0.5,8.6));
#178 = DIRECTION('',(0.,0.,1.));
#179 = DIRECTION('',(0.,-1.,0.));
#180 = ORIENTED_EDGE('',*,*,#181,.T.);
#181 = EDGE_CURVE('',#173,#63,#182,.T.);
#182 = LINE('',#183,#184);
#183 = CARTESIAN_POINT('',(0.5,-2.5,8.6));
#184 = VECTOR('',#185,1.);
#185 = DIRECTION('',(0.,0.,1.));
#186 = ORIENTED_EDGE('',*,*,#62,.F.);
#187 = ORIENTED_EDGE('',*,*,#31,.F.);
#188 = CYLINDRICAL_SURFACE('',#189,3.);
#189 = AXIS2_PLACEMENT_3D('',#190,#191,#192);
#190 = CARTESIAN_POINT('',(0.5,0.5,8.6));
#191 = DIRECTION('',(0.,0.,1.));
#192 = DIRECTION('',(-1.,-0.,0.));
#193 = ADVANCED_FACE('',(#194),#213,.T.);
#194 = FACE_BOUND('',#195,.F.);
#195 = EDGE_LOOP('',(#196,#205,#211,#212));
#196 = ORIENTED_EDGE('',*,*,#197,.T.);
#197 = EDGE_CURVE('',#40,#198,#200,.T.);
#198 = VERTEX_POINT('',#199);
#199 = CARTESIAN_POINT('',(0.5,108.25,8.6));
#200 = CIRCLE('',#201,3.);
#201 = AXIS2_PLACEMENT_3D('',#202,#203,#204);
#202 = CARTESIAN_POINT('',(0.5,105.25,8.6));
#203 = DIRECTION('',(-0.,-0.,-1.));
#204 = DIRECTION('',(0.,-1.,0.));
#205 = ORIENTED_EDGE('',*,*,#206,.T.);
#206 = EDGE_CURVE('',#198,#106,#207,.T.);
#207 = LINE('',#208,#209);
#208 = CARTESIAN_POINT('',(0.5,108.25,8.6));
#209 = VECTOR('',#210,1.);
#210 = DIRECTION('',(0.,0.,1.));
#211 = ORIENTED_EDGE('',*,*,#113,.F.);
#212 = ORIENTED_EDGE('',*,*,#47,.F.);
#213 = CYLINDRICAL_SURFACE('',#214,3.);
#214 = AXIS2_PLACEMENT_3D('',#215,#216,#217);
#215 = CARTESIAN_POINT('',(0.5,105.25,8.6));
#216 = DIRECTION('',(0.,0.,1.));
#217 = DIRECTION('',(-1.,-0.,0.));
#218 = ADVANCED_FACE('',(#219),#330,.F.);
#219 = FACE_BOUND('',#220,.F.);
#220 = EDGE_LOOP('',(#221,#222,#223,#231,#239,#247,#256,#264,#273,#281,
    #290,#298,#306,#314,#323,#329));
#221 = ORIENTED_EDGE('',*,*,#39,.F.);
#222 = ORIENTED_EDGE('',*,*,#172,.T.);
#223 = ORIENTED_EDGE('',*,*,#224,.T.);
#224 = EDGE_CURVE('',#173,#225,#227,.T.);
#225 = VERTEX_POINT('',#226);
#226 = CARTESIAN_POINT('',(14.1,-2.5,8.6));
#227 = LINE('',#228,#229);
#228 = CARTESIAN_POINT('',(-2.5,-2.5,8.6));
#229 = VECTOR('',#230,1.);
#230 = DIRECTION('',(1.,0.,-0.));
#231 = ORIENTED_EDGE('',*,*,#232,.T.);
#232 = EDGE_CURVE('',#225,#233,#235,.T.);
#233 = VERTEX_POINT('',#234);
#234 = CARTESIAN_POINT('',(14.1,-0.5,8.6));
#235 = LINE('',#236,#237);
#236 = CARTESIAN_POINT('',(14.1,-3.,8.6));
#237 = VECTOR('',#238,1.);
#238 = DIRECTION('',(-0.,1.,0.));
#239 = ORIENTED_EDGE('',*,*,#240,.T.);
#240 = EDGE_CURVE('',#233,#241,#243,.T.);
#241 = VERTEX_POINT('',#242);
#242 = CARTESIAN_POINT('',(0.5,-0.5,8.6));
#243 = LINE('',#244,#245);
#244 = CARTESIAN_POINT('',(-1.5,-0.5,8.6));
#245 = VECTOR('',#246,1.);
#246 = DIRECTION('',(-1.,-0.,0.));
#247 = ORIENTED_EDGE('',*,*,#248,.F.);
#248 = EDGE_CURVE('',#249,#241,#251,.T.);
#249 = VERTEX_POINT('',#250);
#250 = CARTESIAN_POINT('',(-0.5,0.5,8.6));
#251 = CIRCLE('',#252,1.);
#252 = AXIS2_PLACEMENT_3D('',#253,#254,#255);
#253 = CARTESIAN_POINT('',(0.5,0.5,8.6));
#254 = DIRECTION('',(0.,0.,1.));
#255 = DIRECTION('',(-1.,-0.,0.));
#256 = ORIENTED_EDGE('',*,*,#257,.T.);
#257 = EDGE_CURVE('',#249,#258,#260,.T.);
#258 = VERTEX_POINT('',#259);
#259 = CARTESIAN_POINT('',(-0.5,105.25,8.6));
#260 = LINE('',#261,#262);
#261 = CARTESIAN_POINT('',(-0.5,-1.5,8.6));
#262 = VECTOR('',#263,1.);
#263 = DIRECTION('',(-0.,1.,0.));
#264 = ORIENTED_EDGE('',*,*,#265,.F.);
#265 = EDGE_CURVE('',#266,#258,#268,.T.);
#266 = VERTEX_POINT('',#267);
#267 = CARTESIAN_POINT('',(0.5,106.25,8.6));
#268 = CIRCLE('',#269,1.);
#269 = AXIS2_PLACEMENT_3D('',#270,#271,#272);
#270 = CARTESIAN_POINT('',(0.5,105.25,8.6));
#271 = DIRECTION('',(0.,0.,1.));
#272 = DIRECTION('',(-1.,-0.,0.));
#273 = ORIENTED_EDGE('',*,*,#274,.F.);
#274 = EDGE_CURVE('',#275,#266,#277,.T.);
#275 = VERTEX_POINT('',#276);
#276 = CARTESIAN_POINT('',(99.5,106.25,8.6));
#277 = LINE('',#278,#279);
#278 = CARTESIAN_POINT('',(-1.5,106.25,8.6));
#279 = VECTOR('',#280,1.);
#280 = DIRECTION('',(-1.,-0.,0.));
#281 = ORIENTED_EDGE('',*,*,#282,.F.);
#282 = EDGE_CURVE('',#283,#275,#285,.T.);
#283 = VERTEX_POINT('',#284);
#284 = CARTESIAN_POINT('',(100.5,105.25,8.6));
#285 = CIRCLE('',#286,1.);
#286 = AXIS2_PLACEMENT_3D('',#287,#288,#289);
#287 = CARTESIAN_POINT('',(99.5,105.25,8.6));
#288 = DIRECTION('',(0.,0.,1.));
#289 = DIRECTION('',(1.,0.,-0.));
#290 = ORIENTED_EDGE('',*,*,#291,.F.);
#291 = EDGE_CURVE('',#292,#283,#294,.T.);
#292 = VERTEX_POINT('',#293);
#293 = CARTESIAN_POINT('',(100.5,90.879318085742,8.6));
#294 = LINE('',#295,#296);
#295 = CARTESIAN_POINT('',(100.5,-1.5,8.6));
#296 = VECTOR('',#297,1.);
#297 = DIRECTION('',(-0.,1.,0.));
#298 = ORIENTED_EDGE('',*,*,#299,.T.);
#299 = EDGE_CURVE('',#292,#300,#302,.T.);
#300 = VERTEX_POINT('',#301);
#301 = CARTESIAN_POINT('',(102.5,90.879318085742,8.6));
#302 = LINE('',#303,#304);
#303 = CARTESIAN_POINT('',(97.5,90.879318085742,8.6));
#304 = VECTOR('',#305,1.);
#305 = DIRECTION('',(1.,0.,2.22044604925E-16));
#306 = ORIENTED_EDGE('',*,*,#307,.T.);
#307 = EDGE_CURVE('',#300,#308,#310,.T.);
#308 = VERTEX_POINT('',#309);
#309 = CARTESIAN_POINT('',(102.5,105.25,8.6));
#310 = LINE('',#311,#312);
#311 = CARTESIAN_POINT('',(102.5,-2.5,8.6));
#312 = VECTOR('',#313,1.);
#313 = DIRECTION('',(-0.,1.,0.));
#314 = ORIENTED_EDGE('',*,*,#315,.T.);
#315 = EDGE_CURVE('',#308,#316,#318,.T.);
#316 = VERTEX_POINT('',#317);
#317 = CARTESIAN_POINT('',(99.5,108.25,8.6));
#318 = CIRCLE('',#319,3.);
#319 = AXIS2_PLACEMENT_3D('',#320,#321,#322);
#320 = CARTESIAN_POINT('',(99.5,105.25,8.6));
#321 = DIRECTION('',(0.,0.,1.));
#322 = DIRECTION('',(0.,-1.,0.));
#323 = ORIENTED_EDGE('',*,*,#324,.F.);
#324 = EDGE_CURVE('',#198,#316,#325,.T.);
#325 = LINE('',#326,#327);
#326 = CARTESIAN_POINT('',(-2.5,108.25,8.6));
#327 = VECTOR('',#328,1.);
#328 = DIRECTION('',(1.,0.,-0.));
#329 = ORIENTED_EDGE('',*,*,#197,.F.);
#330 = PLANE('',#331);
#331 = AXIS2_PLACEMENT_3D('',#332,#333,#334);
#332 = CARTESIAN_POINT('',(-2.5,-2.5,8.6));
#333 = DIRECTION('',(0.,0.,1.));
#334 = DIRECTION('',(1.,0.,-0.));
#335 = ADVANCED_FACE('',(#336),#476,.F.);
#336 = FACE_BOUND('',#337,.F.);
#337 = EDGE_LOOP('',(#338,#339,#340,#341,#349,#357,#365,#373,#381,#389,
    #397,#406,#414,#422,#430,#438,#446,#454,#462,#470));
#338 = ORIENTED_EDGE('',*,*,#224,.F.);
#339 = ORIENTED_EDGE('',*,*,#181,.T.);
#340 = ORIENTED_EDGE('',*,*,#71,.T.);
#341 = ORIENTED_EDGE('',*,*,#342,.F.);
#342 = EDGE_CURVE('',#343,#72,#345,.T.);
#343 = VERTEX_POINT('',#344);
#344 = CARTESIAN_POINT('',(99.5,-2.5,8.6));
#345 = LINE('',#346,#347);
#346 = CARTESIAN_POINT('',(99.5,-2.5,8.6));
#347 = VECTOR('',#348,1.);
#348 = DIRECTION('',(0.,0.,1.));
#349 = ORIENTED_EDGE('',*,*,#350,.F.);
#350 = EDGE_CURVE('',#351,#343,#353,.T.);
#351 = VERTEX_POINT('',#352);
#352 = CARTESIAN_POINT('',(86.715,-2.5,8.6));
#353 = LINE('',#354,#355);
#354 = CARTESIAN_POINT('',(-2.5,-2.5,8.6));
#355 = VECTOR('',#356,1.);
#356 = DIRECTION('',(1.,0.,-0.));
#357 = ORIENTED_EDGE('',*,*,#358,.F.);
#358 = EDGE_CURVE('',#359,#351,#361,.T.);
#359 = VERTEX_POINT('',#360);
#360 = CARTESIAN_POINT('',(86.715,-2.5,22.9));
#361 = LINE('',#362,#363);
#362 = CARTESIAN_POINT('',(86.715,-2.5,8.595));
#363 = VECTOR('',#364,1.);
#364 = DIRECTION('',(-0.,0.,-1.));
#365 = ORIENTED_EDGE('',*,*,#366,.F.);
#366 = EDGE_CURVE('',#367,#359,#369,.T.);
#367 = VERTEX_POINT('',#368);
#368 = CARTESIAN_POINT('',(69.715,-2.5,22.9));
#369 = LINE('',#370,#371);
#370 = CARTESIAN_POINT('',(33.6075,-2.5,22.9));
#371 = VECTOR('',#372,1.);
#372 = DIRECTION('',(1.,0.,-0.));
#373 = ORIENTED_EDGE('',*,*,#374,.T.);
#374 = EDGE_CURVE('',#367,#375,#377,.T.);
#375 = VERTEX_POINT('',#376);
#376 = CARTESIAN_POINT('',(69.715,-2.5,8.6));
#377 = LINE('',#378,#379);
#378 = CARTESIAN_POINT('',(69.715,-2.5,8.595));
#379 = VECTOR('',#380,1.);
#380 = DIRECTION('',(-0.,0.,-1.));
#381 = ORIENTED_EDGE('',*,*,#382,.F.);
#382 = EDGE_CURVE('',#383,#375,#385,.T.);
#383 = VERTEX_POINT('',#384);
#384 = CARTESIAN_POINT('',(64.,-2.5,8.6));
#385 = LINE('',#386,#387);
#386 = CARTESIAN_POINT('',(-2.5,-2.5,8.6));
#387 = VECTOR('',#388,1.);
#388 = DIRECTION('',(1.,0.,-0.));
#389 = ORIENTED_EDGE('',*,*,#390,.F.);
#390 = EDGE_CURVE('',#391,#383,#393,.T.);
#391 = VERTEX_POINT('',#392);
#392 = CARTESIAN_POINT('',(64.,-2.5,11.2));
#393 = LINE('',#394,#395);
#394 = CARTESIAN_POINT('',(64.,-2.5,9.025));
#395 = VECTOR('',#396,1.);
#396 = DIRECTION('',(0.,0.,-1.));
#397 = ORIENTED_EDGE('',*,*,#398,.F.);
#398 = EDGE_CURVE('',#399,#391,#401,.T.);
#399 = VERTEX_POINT('',#400);
#400 = CARTESIAN_POINT('',(57.,-2.5,11.2));
#401 = CIRCLE('',#402,3.5);
#402 = AXIS2_PLACEMENT_3D('',#403,#404,#405);
#403 = CARTESIAN_POINT('',(60.5,-2.5,11.2));
#404 = DIRECTION('',(0.,1.,0.));
#405 = DIRECTION('',(0.,-0.,1.));
#406 = ORIENTED_EDGE('',*,*,#407,.F.);
#407 = EDGE_CURVE('',#408,#399,#410,.T.);
#408 = VERTEX_POINT('',#409);
#409 = CARTESIAN_POINT('',(57.,-2.5,8.6));
#410 = LINE('',#411,#412);
#411 = CARTESIAN_POINT('',(57.,-2.5,9.025));
#412 = VECTOR('',#413,1.);
#413 = DIRECTION('',(0.,-0.,1.));
#414 = ORIENTED_EDGE('',*,*,#415,.F.);
#415 = EDGE_CURVE('',#416,#408,#418,.T.);
#416 = VERTEX_POINT('',#417);
#417 = CARTESIAN_POINT('',(50.9,-2.5,8.6));
#418 = LINE('',#419,#420);
#419 = CARTESIAN_POINT('',(-2.5,-2.5,8.6));
#420 = VECTOR('',#421,1.);
#421 = DIRECTION('',(1.,0.,-0.));
#422 = ORIENTED_EDGE('',*,*,#423,.F.);
#423 = EDGE_CURVE('',#424,#416,#426,.T.);
#424 = VERTEX_POINT('',#425);
#425 = CARTESIAN_POINT('',(50.9,-2.5,22.6));
#426 = LINE('',#427,#428);
#427 = CARTESIAN_POINT('',(50.9,-2.5,8.595));
#428 = VECTOR('',#429,1.);
#429 = DIRECTION('',(-0.,0.,-1.));
#430 = ORIENTED_EDGE('',*,*,#431,.F.);
#431 = EDGE_CURVE('',#432,#424,#434,.T.);
#432 = VERTEX_POINT('',#433);
#433 = CARTESIAN_POINT('',(34.1,-2.5,22.6));
#434 = LINE('',#435,#436);
#435 = CARTESIAN_POINT('',(15.8,-2.5,22.6));
#436 = VECTOR('',#437,1.);
#437 = DIRECTION('',(1.,0.,-0.));
#438 = ORIENTED_EDGE('',*,*,#439,.T.);
#439 = EDGE_CURVE('',#432,#440,#442,.T.);
#440 = VERTEX_POINT('',#441);
#441 = CARTESIAN_POINT('',(34.1,-2.5,8.6));
#442 = LINE('',#443,#444);
#443 = CARTESIAN_POINT('',(34.1,-2.5,8.595));
#444 = VECTOR('',#445,1.);
#445 = DIRECTION('',(-0.,0.,-1.));
#446 = ORIENTED_EDGE('',*,*,#447,.F.);
#447 = EDGE_CURVE('',#448,#440,#450,.T.);
#448 = VERTEX_POINT('',#449);
#449 = CARTESIAN_POINT('',(30.9,-2.5,8.6));
#450 = LINE('',#451,#452);
#451 = CARTESIAN_POINT('',(-2.5,-2.5,8.6));
#452 = VECTOR('',#453,1.);
#453 = DIRECTION('',(1.,0.,-0.));
#454 = ORIENTED_EDGE('',*,*,#455,.F.);
#455 = EDGE_CURVE('',#456,#448,#458,.T.);
#456 = VERTEX_POINT('',#457);
#457 = CARTESIAN_POINT('',(30.9,-2.5,22.6));
#458 = LINE('',#459,#460);
#459 = CARTESIAN_POINT('',(30.9,-2.5,8.595));
#460 = VECTOR('',#461,1.);
#461 = DIRECTION('',(-0.,0.,-1.));
#462 = ORIENTED_EDGE('',*,*,#463,.F.);
#463 = EDGE_CURVE('',#464,#456,#466,.T.);
#464 = VERTEX_POINT('',#465);
#465 = CARTESIAN_POINT('',(14.1,-2.5,22.6));
#466 = LINE('',#467,#468);
#467 = CARTESIAN_POINT('',(5.8,-2.5,22.6));
#468 = VECTOR('',#469,1.);
#469 = DIRECTION('',(1.,0.,-0.));
#470 = ORIENTED_EDGE('',*,*,#471,.T.);
#471 = EDGE_CURVE('',#464,#225,#472,.T.);
#472 = LINE('',#473,#474);
#473 = CARTESIAN_POINT('',(14.1,-2.5,8.595));
#474 = VECTOR('',#475,1.);
#475 = DIRECTION('',(-0.,0.,-1.));
#476 = PLANE('',#477);
#477 = AXIS2_PLACEMENT_3D('',#478,#479,#480);
#478 = CARTESIAN_POINT('',(-2.5,-2.5,8.6));
#479 = DIRECTION('',(-0.,1.,0.));
#480 = DIRECTION('',(0.,0.,1.));
#481 = ADVANCED_FACE('',(#482),#493,.T.);
#482 = FACE_BOUND('',#483,.T.);
#483 = EDGE_LOOP('',(#484,#485,#486,#487));
#484 = ORIENTED_EDGE('',*,*,#324,.F.);
#485 = ORIENTED_EDGE('',*,*,#206,.T.);
#486 = ORIENTED_EDGE('',*,*,#105,.T.);
#487 = ORIENTED_EDGE('',*,*,#488,.F.);
#488 = EDGE_CURVE('',#316,#97,#489,.T.);
#489 = LINE('',#490,#491);
#490 = CARTESIAN_POINT('',(99.5,108.25,8.6));
#491 = VECTOR('',#492,1.);
#492 = DIRECTION('',(0.,0.,1.));
#493 = PLANE('',#494);
#494 = AXIS2_PLACEMENT_3D('',#495,#496,#497);
#495 = CARTESIAN_POINT('',(-2.5,108.25,8.6));
#496 = DIRECTION('',(-0.,1.,0.));
#497 = DIRECTION('',(0.,0.,1.));
#498 = ADVANCED_FACE('',(#499),#518,.T.);
#499 = FACE_BOUND('',#500,.F.);
#500 = EDGE_LOOP('',(#501,#510,#511,#512));
#501 = ORIENTED_EDGE('',*,*,#502,.T.);
#502 = EDGE_CURVE('',#503,#343,#505,.T.);
#503 = VERTEX_POINT('',#504);
#504 = CARTESIAN_POINT('',(102.5,0.5,8.6));
#505 = CIRCLE('',#506,3.);
#506 = AXIS2_PLACEMENT_3D('',#507,#508,#509);
#507 = CARTESIAN_POINT('',(99.5,0.5,8.6));
#508 = DIRECTION('',(-0.,-0.,-1.));
#509 = DIRECTION('',(0.,-1.,0.));
#510 = ORIENTED_EDGE('',*,*,#342,.T.);
#511 = ORIENTED_EDGE('',*,*,#79,.F.);
#512 = ORIENTED_EDGE('',*,*,#513,.F.);
#513 = EDGE_CURVE('',#503,#80,#514,.T.);
#514 = LINE('',#515,#516);
#515 = CARTESIAN_POINT('',(102.5,0.5,8.6));
#516 = VECTOR('',#517,1.);
#517 = DIRECTION('',(0.,0.,1.));
#518 = CYLINDRICAL_SURFACE('',#519,3.);
#519 = AXIS2_PLACEMENT_3D('',#520,#521,#522);
#520 = CARTESIAN_POINT('',(99.5,0.5,8.6));
#521 = DIRECTION('',(0.,0.,1.));
#522 = DIRECTION('',(1.,0.,-0.));
#523 = ADVANCED_FACE('',(#524),#535,.T.);
#524 = FACE_BOUND('',#525,.T.);
#525 = EDGE_LOOP('',(#526,#527,#528,#529));
#526 = ORIENTED_EDGE('',*,*,#315,.T.);
#527 = ORIENTED_EDGE('',*,*,#488,.T.);
#528 = ORIENTED_EDGE('',*,*,#96,.F.);
#529 = ORIENTED_EDGE('',*,*,#530,.F.);
#530 = EDGE_CURVE('',#308,#89,#531,.T.);
#531 = LINE('',#532,#533);
#532 = CARTESIAN_POINT('',(102.5,105.25,8.6));
#533 = VECTOR('',#534,1.);
#534 = DIRECTION('',(0.,0.,1.));
#535 = CYLINDRICAL_SURFACE('',#536,3.);
#536 = AXIS2_PLACEMENT_3D('',#537,#538,#539);
#537 = CARTESIAN_POINT('',(99.5,105.25,8.6));
#538 = DIRECTION('',(0.,0.,1.));
#539 = DIRECTION('',(1.,0.,-0.));
#540 = ADVANCED_FACE('',(#541),#613,.T.);
#541 = FACE_BOUND('',#542,.T.);
#542 = EDGE_LOOP('',(#543,#544,#545,#553,#562,#570,#579,#587,#596,#604,
    #611,#612));
#543 = ORIENTED_EDGE('',*,*,#88,.F.);
#544 = ORIENTED_EDGE('',*,*,#513,.F.);
#545 = ORIENTED_EDGE('',*,*,#546,.T.);
#546 = EDGE_CURVE('',#503,#547,#549,.T.);
#547 = VERTEX_POINT('',#548);
#548 = CARTESIAN_POINT('',(102.5,78.540681914258,8.6));
#549 = LINE('',#550,#551);
#550 = CARTESIAN_POINT('',(102.5,-2.5,8.6));
#551 = VECTOR('',#552,1.);
#552 = DIRECTION('',(-0.,1.,0.));
#553 = ORIENTED_EDGE('',*,*,#554,.F.);
#554 = EDGE_CURVE('',#555,#547,#557,.T.);
#555 = VERTEX_POINT('',#556);
#556 = CARTESIAN_POINT('',(102.5,78.46,9.23));
#557 = CIRCLE('',#558,2.5);
#558 = AXIS2_PLACEMENT_3D('',#559,#560,#561);
#559 = CARTESIAN_POINT('',(102.5,80.96,9.23));
#560 = DIRECTION('',(1.,0.,2.22044604925E-16));
#561 = DIRECTION('',(2.22044604925E-16,0.,-1.));
#562 = ORIENTED_EDGE('',*,*,#563,.T.);
#563 = EDGE_CURVE('',#555,#564,#566,.T.);
#564 = VERTEX_POINT('',#565);
#565 = CARTESIAN_POINT('',(102.5,78.46,11.23));
#566 = LINE('',#567,#568);
#567 = CARTESIAN_POINT('',(102.5,78.46,11.165));
#568 = VECTOR('',#569,1.);
#569 = DIRECTION('',(0.,-0.,1.));
#570 = ORIENTED_EDGE('',*,*,#571,.F.);
#571 = EDGE_CURVE('',#572,#564,#574,.T.);
#572 = VERTEX_POINT('',#573);
#573 = CARTESIAN_POINT('',(102.5,80.96,13.73));
#574 = CIRCLE('',#575,2.5);
#575 = AXIS2_PLACEMENT_3D('',#576,#577,#578);
#576 = CARTESIAN_POINT('',(102.5,80.96,11.23));
#577 = DIRECTION('',(1.,0.,2.22044604925E-16));
#578 = DIRECTION('',(-2.22044604925E-16,0.,1.));
#579 = ORIENTED_EDGE('',*,*,#580,.T.);
#580 = EDGE_CURVE('',#572,#581,#583,.T.);
#581 = VERTEX_POINT('',#582);
#582 = CARTESIAN_POINT('',(102.5,88.46,13.73));
#583 = LINE('',#584,#585);
#584 = CARTESIAN_POINT('',(102.5,37.98,13.73));
#585 = VECTOR('',#586,1.);
#586 = DIRECTION('',(0.,1.,0.));
#587 = ORIENTED_EDGE('',*,*,#588,.F.);
#588 = EDGE_CURVE('',#589,#581,#591,.T.);
#589 = VERTEX_POINT('',#590);
#590 = CARTESIAN_POINT('',(102.5,90.96,11.23));
#591 = CIRCLE('',#592,2.5);
#592 = AXIS2_PLACEMENT_3D('',#593,#594,#595);
#593 = CARTESIAN_POINT('',(102.5,88.46,11.23));
#594 = DIRECTION('',(1.,0.,2.22044604925E-16));
#595 = DIRECTION('',(-2.22044604925E-16,0.,1.));
#596 = ORIENTED_EDGE('',*,*,#597,.F.);
#597 = EDGE_CURVE('',#598,#589,#600,.T.);
#598 = VERTEX_POINT('',#599);
#599 = CARTESIAN_POINT('',(102.5,90.96,9.23));
#600 = LINE('',#601,#602);
#601 = CARTESIAN_POINT('',(102.5,90.96,11.165));
#602 = VECTOR('',#603,1.);
#603 = DIRECTION('',(0.,-0.,1.));
#604 = ORIENTED_EDGE('',*,*,#605,.F.);
#605 = EDGE_CURVE('',#300,#598,#606,.T.);
#606 = CIRCLE('',#607,2.5);
#607 = AXIS2_PLACEMENT_3D('',#608,#609,#610);
#608 = CARTESIAN_POINT('',(102.5,88.46,9.23));
#609 = DIRECTION('',(1.,0.,2.22044604925E-16));
#610 = DIRECTION('',(2.22044604925E-16,0.,-1.));
#611 = ORIENTED_EDGE('',*,*,#307,.T.);
#612 = ORIENTED_EDGE('',*,*,#530,.T.);
#613 = PLANE('',#614);
#614 = AXIS2_PLACEMENT_3D('',#615,#616,#617);
#615 = CARTESIAN_POINT('',(102.5,-2.5,8.6));
#616 = DIRECTION('',(1.,0.,-0.));
#617 = DIRECTION('',(0.,0.,1.));
#618 = ADVANCED_FACE('',(#619),#638,.F.);
#619 = FACE_BOUND('',#620,.F.);
#620 = EDGE_LOOP('',(#621,#622,#630,#637));
#621 = ORIENTED_EDGE('',*,*,#122,.F.);
#622 = ORIENTED_EDGE('',*,*,#623,.F.);
#623 = EDGE_CURVE('',#624,#123,#626,.T.);
#624 = VERTEX_POINT('',#625);
#625 = CARTESIAN_POINT('',(7.2,5.5,8.6));
#626 = LINE('',#627,#628);
#627 = CARTESIAN_POINT('',(7.2,5.5,7.6));
#628 = VECTOR('',#629,1.);
#629 = DIRECTION('',(0.,0.,1.));
#630 = ORIENTED_EDGE('',*,*,#631,.T.);
#631 = EDGE_CURVE('',#624,#624,#632,.T.);
#632 = CIRCLE('',#633,1.7);
#633 = AXIS2_PLACEMENT_3D('',#634,#635,#636);
#634 = CARTESIAN_POINT('',(5.5,5.5,8.6));
#635 = DIRECTION('',(0.,0.,1.));
#636 = DIRECTION('',(1.,0.,-0.));
#637 = ORIENTED_EDGE('',*,*,#623,.T.);
#638 = CYLINDRICAL_SURFACE('',#639,1.7);
#639 = AXIS2_PLACEMENT_3D('',#640,#641,#642);
#640 = CARTESIAN_POINT('',(5.5,5.5,7.6));
#641 = DIRECTION('',(0.,0.,1.));
#642 = DIRECTION('',(1.,0.,-0.));
#643 = ADVANCED_FACE('',(#644),#663,.F.);
#644 = FACE_BOUND('',#645,.F.);
#645 = EDGE_LOOP('',(#646,#647,#655,#662));
#646 = ORIENTED_EDGE('',*,*,#133,.F.);
#647 = ORIENTED_EDGE('',*,*,#648,.F.);
#648 = EDGE_CURVE('',#649,#134,#651,.T.);
#649 = VERTEX_POINT('',#650);
#650 = CARTESIAN_POINT('',(96.2,5.5,8.6));
#651 = LINE('',#652,#653);
#652 = CARTESIAN_POINT('',(96.2,5.5,7.6));
#653 = VECTOR('',#654,1.);
#654 = DIRECTION('',(0.,0.,1.));
#655 = ORIENTED_EDGE('',*,*,#656,.T.);
#656 = EDGE_CURVE('',#649,#649,#657,.T.);
#657 = CIRCLE('',#658,1.7);
#658 = AXIS2_PLACEMENT_3D('',#659,#660,#661);
#659 = CARTESIAN_POINT('',(94.5,5.5,8.6));
#660 = DIRECTION('',(0.,0.,1.));
#661 = DIRECTION('',(1.,0.,-0.));
#662 = ORIENTED_EDGE('',*,*,#648,.T.);
#663 = CYLINDRICAL_SURFACE('',#664,1.7);
#664 = AXIS2_PLACEMENT_3D('',#665,#666,#667);
#665 = CARTESIAN_POINT('',(94.5,5.5,7.6));
#666 = DIRECTION('',(0.,0.,1.));
#667 = DIRECTION('',(1.,0.,-0.));
#668 = ADVANCED_FACE('',(#669),#688,.F.);
#669 = FACE_BOUND('',#670,.F.);
#670 = EDGE_LOOP('',(#671,#672,#680,#687));
#671 = ORIENTED_EDGE('',*,*,#144,.F.);
#672 = ORIENTED_EDGE('',*,*,#673,.F.);
#673 = EDGE_CURVE('',#674,#145,#676,.T.);
#674 = VERTEX_POINT('',#675);
#675 = CARTESIAN_POINT('',(7.2,94.5,8.6));
#676 = LINE('',#677,#678);
#677 = CARTESIAN_POINT('',(7.2,94.5,7.6));
#678 = VECTOR('',#679,1.);
#679 = DIRECTION('',(0.,0.,1.));
#680 = ORIENTED_EDGE('',*,*,#681,.T.);
#681 = EDGE_CURVE('',#674,#674,#682,.T.);
#682 = CIRCLE('',#683,1.7);
#683 = AXIS2_PLACEMENT_3D('',#684,#685,#686);
#684 = CARTESIAN_POINT('',(5.5,94.5,8.6));
#685 = DIRECTION('',(0.,0.,1.));
#686 = DIRECTION('',(1.,0.,-0.));
#687 = ORIENTED_EDGE('',*,*,#673,.T.);
#688 = CYLINDRICAL_SURFACE('',#689,1.7);
#689 = AXIS2_PLACEMENT_3D('',#690,#691,#692);
#690 = CARTESIAN_POINT('',(5.5,94.5,7.6));
#691 = DIRECTION('',(0.,0.,1.));
#692 = DIRECTION('',(1.,0.,-0.));
#693 = ADVANCED_FACE('',(#694),#713,.F.);
#694 = FACE_BOUND('',#695,.F.);
#695 = EDGE_LOOP('',(#696,#697,#705,#712));
#696 = ORIENTED_EDGE('',*,*,#155,.F.);
#697 = ORIENTED_EDGE('',*,*,#698,.F.);
#698 = EDGE_CURVE('',#699,#156,#701,.T.);
#699 = VERTEX_POINT('',#700);
#700 = CARTESIAN_POINT('',(96.2,94.5,8.6));
#701 = LINE('',#702,#703);
#702 = CARTESIAN_POINT('',(96.2,94.5,7.6));
#703 = VECTOR('',#704,1.);
#704 = DIRECTION('',(0.,0.,1.));
#705 = ORIENTED_EDGE('',*,*,#706,.T.);
#706 = EDGE_CURVE('',#699,#699,#707,.T.);
#707 = CIRCLE('',#708,1.7);
#708 = AXIS2_PLACEMENT_3D('',#709,#710,#711);
#709 = CARTESIAN_POINT('',(94.5,94.5,8.6));
#710 = DIRECTION('',(0.,0.,1.));
#711 = DIRECTION('',(1.,0.,-0.));
#712 = ORIENTED_EDGE('',*,*,#698,.T.);
#713 = CYLINDRICAL_SURFACE('',#714,1.7);
#714 = AXIS2_PLACEMENT_3D('',#715,#716,#717);
#715 = CARTESIAN_POINT('',(94.5,94.5,7.6));
#716 = DIRECTION('',(0.,0.,1.));
#717 = DIRECTION('',(1.,0.,-0.));
#718 = ADVANCED_FACE('',(#719),#738,.F.);
#719 = FACE_BOUND('',#720,.F.);
#720 = EDGE_LOOP('',(#721,#730,#736,#737));
#721 = ORIENTED_EDGE('',*,*,#722,.T.);
#722 = EDGE_CURVE('',#292,#723,#725,.T.);
#723 = VERTEX_POINT('',#724);
#724 = CARTESIAN_POINT('',(100.5,90.96,9.23));
#725 = CIRCLE('',#726,2.5);
#726 = AXIS2_PLACEMENT_3D('',#727,#728,#729);
#727 = CARTESIAN_POINT('',(100.5,88.46,9.23));
#728 = DIRECTION('',(1.,0.,2.22044604925E-16));
#729 = DIRECTION('',(2.22044604925E-16,0.,-1.));
#730 = ORIENTED_EDGE('',*,*,#731,.T.);
#731 = EDGE_CURVE('',#723,#598,#732,.T.);
#732 = LINE('',#733,#734);
#733 = CARTESIAN_POINT('',(97.5,90.96,9.23));
#734 = VECTOR('',#735,1.);
#735 = DIRECTION('',(1.,0.,2.22044604925E-16));
#736 = ORIENTED_EDGE('',*,*,#605,.F.);
#737 = ORIENTED_EDGE('',*,*,#299,.F.);
#738 = CYLINDRICAL_SURFACE('',#739,2.5);
#739 = AXIS2_PLACEMENT_3D('',#740,#741,#742);
#740 = CARTESIAN_POINT('',(97.5,88.46,9.23));
#741 = DIRECTION('',(1.,0.,2.22044604925E-16));
#742 = DIRECTION('',(2.22044604925E-16,0.,-1.));
#743 = ADVANCED_FACE('',(#744),#829,.F.);
#744 = FACE_BOUND('',#745,.F.);
#745 = EDGE_LOOP('',(#746,#756,#764,#772,#781,#789,#798,#806,#815,#821,
    #822,#823));
#746 = ORIENTED_EDGE('',*,*,#747,.F.);
#747 = EDGE_CURVE('',#748,#750,#752,.T.);
#748 = VERTEX_POINT('',#749);
#749 = CARTESIAN_POINT('',(100.5,0.5,24.6));
#750 = VERTEX_POINT('',#751);
#751 = CARTESIAN_POINT('',(100.5,105.25,24.6));
#752 = LINE('',#753,#754);
#753 = CARTESIAN_POINT('',(100.5,-0.5,24.6));
#754 = VECTOR('',#755,1.);
#755 = DIRECTION('',(-0.,1.,0.));
#756 = ORIENTED_EDGE('',*,*,#757,.F.);
#757 = EDGE_CURVE('',#758,#748,#760,.T.);
#758 = VERTEX_POINT('',#759);
#759 = CARTESIAN_POINT('',(100.5,0.5,8.6));
#760 = LINE('',#761,#762);
#761 = CARTESIAN_POINT('',(100.5,0.5,7.6));
#762 = VECTOR('',#763,1.);
#763 = DIRECTION('',(0.,0.,1.));
#764 = ORIENTED_EDGE('',*,*,#765,.T.);
#765 = EDGE_CURVE('',#758,#766,#768,.T.);
#766 = VERTEX_POINT('',#767);
#767 = CARTESIAN_POINT('',(100.5,78.540681914258,8.6));
#768 = LINE('',#769,#770);
#769 = CARTESIAN_POINT('',(100.5,-1.5,8.6));
#770 = VECTOR('',#771,1.);
#771 = DIRECTION('',(-0.,1.,0.));
#772 = ORIENTED_EDGE('',*,*,#773,.F.);
#773 = EDGE_CURVE('',#774,#766,#776,.T.);
#774 = VERTEX_POINT('',#775);
#775 = CARTESIAN_POINT('',(100.5,78.46,9.23));
#776 = CIRCLE('',#777,2.5);
#777 = AXIS2_PLACEMENT_3D('',#778,#779,#780);
#778 = CARTESIAN_POINT('',(100.5,80.96,9.23));
#779 = DIRECTION('',(1.,0.,2.22044604925E-16));
#780 = DIRECTION('',(2.22044604925E-16,0.,-1.));
#781 = ORIENTED_EDGE('',*,*,#782,.T.);
#782 = EDGE_CURVE('',#774,#783,#785,.T.);
#783 = VERTEX_POINT('',#784);
#784 = CARTESIAN_POINT('',(100.5,78.46,11.23));
#785 = LINE('',#786,#787);
#786 = CARTESIAN_POINT('',(100.5,78.46,10.665));
#787 = VECTOR('',#788,1.);
#788 = DIRECTION('',(0.,-0.,1.));
#789 = ORIENTED_EDGE('',*,*,#790,.F.);
#790 = EDGE_CURVE('',#791,#783,#793,.T.);
#791 = VERTEX_POINT('',#792);
#792 = CARTESIAN_POINT('',(100.5,80.96,13.73));
#793 = CIRCLE('',#794,2.5);
#794 = AXIS2_PLACEMENT_3D('',#795,#796,#797);
#795 = CARTESIAN_POINT('',(100.5,80.96,11.23));
#796 = DIRECTION('',(1.,0.,2.22044604925E-16));
#797 = DIRECTION('',(-2.22044604925E-16,0.,1.));
#798 = ORIENTED_EDGE('',*,*,#799,.T.);
#799 = EDGE_CURVE('',#791,#800,#802,.T.);
#800 = VERTEX_POINT('',#801);
#801 = CARTESIAN_POINT('',(100.5,88.46,13.73));
#802 = LINE('',#803,#804);
#803 = CARTESIAN_POINT('',(100.5,38.98,13.73));
#804 = VECTOR('',#805,1.);
#805 = DIRECTION('',(0.,1.,0.));
#806 = ORIENTED_EDGE('',*,*,#807,.F.);
#807 = EDGE_CURVE('',#808,#800,#810,.T.);
#808 = VERTEX_POINT('',#809);
#809 = CARTESIAN_POINT('',(100.5,90.96,11.23));
#810 = CIRCLE('',#811,2.5);
#811 = AXIS2_PLACEMENT_3D('',#812,#813,#814);
#812 = CARTESIAN_POINT('',(100.5,88.46,11.23));
#813 = DIRECTION('',(1.,0.,2.22044604925E-16));
#814 = DIRECTION('',(-2.22044604925E-16,0.,1.));
#815 = ORIENTED_EDGE('',*,*,#816,.F.);
#816 = EDGE_CURVE('',#723,#808,#817,.T.);
#817 = LINE('',#818,#819);
#818 = CARTESIAN_POINT('',(100.5,90.96,10.665));
#819 = VECTOR('',#820,1.);
#820 = DIRECTION('',(0.,-0.,1.));
#821 = ORIENTED_EDGE('',*,*,#722,.F.);
#822 = ORIENTED_EDGE('',*,*,#291,.T.);
#823 = ORIENTED_EDGE('',*,*,#824,.T.);
#824 = EDGE_CURVE('',#283,#750,#825,.T.);
#825 = LINE('',#826,#827);
#826 = CARTESIAN_POINT('',(100.5,105.25,7.6));
#827 = VECTOR('',#828,1.);
#828 = DIRECTION('',(0.,0.,1.));
#829 = PLANE('',#830);
#830 = AXIS2_PLACEMENT_3D('',#831,#832,#833);
#831 = CARTESIAN_POINT('',(100.5,-0.5,7.6));
#832 = DIRECTION('',(1.,0.,-0.));
#833 = DIRECTION('',(0.,0.,1.));
#834 = ADVANCED_FACE('',(#835),#854,.F.);
#835 = FACE_BOUND('',#836,.F.);
#836 = EDGE_LOOP('',(#837,#838,#839,#847));
#837 = ORIENTED_EDGE('',*,*,#824,.F.);
#838 = ORIENTED_EDGE('',*,*,#282,.T.);
#839 = ORIENTED_EDGE('',*,*,#840,.T.);
#840 = EDGE_CURVE('',#275,#841,#843,.T.);
#841 = VERTEX_POINT('',#842);
#842 = CARTESIAN_POINT('',(99.5,106.25,24.6));
#843 = LINE('',#844,#845);
#844 = CARTESIAN_POINT('',(99.5,106.25,7.6));
#845 = VECTOR('',#846,1.);
#846 = DIRECTION('',(0.,0.,1.));
#847 = ORIENTED_EDGE('',*,*,#848,.F.);
#848 = EDGE_CURVE('',#750,#841,#849,.T.);
#849 = CIRCLE('',#850,1.);
#850 = AXIS2_PLACEMENT_3D('',#851,#852,#853);
#851 = CARTESIAN_POINT('',(99.5,105.25,24.6));
#852 = DIRECTION('',(0.,0.,1.));
#853 = DIRECTION('',(0.,-1.,0.));
#854 = CYLINDRICAL_SURFACE('',#855,1.);
#855 = AXIS2_PLACEMENT_3D('',#856,#857,#858);
#856 = CARTESIAN_POINT('',(99.5,105.25,7.6));
#857 = DIRECTION('',(0.,0.,1.));
#858 = DIRECTION('',(1.,0.,-0.));
#859 = ADVANCED_FACE('',(#860),#878,.F.);
#860 = FACE_BOUND('',#861,.F.);
#861 = EDGE_LOOP('',(#862,#863,#871,#877));
#862 = ORIENTED_EDGE('',*,*,#274,.T.);
#863 = ORIENTED_EDGE('',*,*,#864,.T.);
#864 = EDGE_CURVE('',#266,#865,#867,.T.);
#865 = VERTEX_POINT('',#866);
#866 = CARTESIAN_POINT('',(0.5,106.25,24.6));
#867 = LINE('',#868,#869);
#868 = CARTESIAN_POINT('',(0.5,106.25,7.6));
#869 = VECTOR('',#870,1.);
#870 = DIRECTION('',(0.,0.,1.));
#871 = ORIENTED_EDGE('',*,*,#872,.T.);
#872 = EDGE_CURVE('',#865,#841,#873,.T.);
#873 = LINE('',#874,#875);
#874 = CARTESIAN_POINT('',(-0.5,106.25,24.6));
#875 = VECTOR('',#876,1.);
#876 = DIRECTION('',(1.,0.,-0.));
#877 = ORIENTED_EDGE('',*,*,#840,.F.);
#878 = PLANE('',#879);
#879 = AXIS2_PLACEMENT_3D('',#880,#881,#882);
#880 = CARTESIAN_POINT('',(-0.5,106.25,7.6));
#881 = DIRECTION('',(-0.,1.,0.));
#882 = DIRECTION('',(0.,0.,1.));
#883 = ADVANCED_FACE('',(#884),#903,.F.);
#884 = FACE_BOUND('',#885,.T.);
#885 = EDGE_LOOP('',(#886,#894,#895,#896));
#886 = ORIENTED_EDGE('',*,*,#887,.F.);
#887 = EDGE_CURVE('',#258,#888,#890,.T.);
#888 = VERTEX_POINT('',#889);
#889 = CARTESIAN_POINT('',(-0.5,105.25,24.6));
#890 = LINE('',#891,#892);
#891 = CARTESIAN_POINT('',(-0.5,105.25,7.6));
#892 = VECTOR('',#893,1.);
#893 = DIRECTION('',(0.,0.,1.));
#894 = ORIENTED_EDGE('',*,*,#265,.F.);
#895 = ORIENTED_EDGE('',*,*,#864,.T.);
#896 = ORIENTED_EDGE('',*,*,#897,.F.);
#897 = EDGE_CURVE('',#888,#865,#898,.T.);
#898 = CIRCLE('',#899,1.);
#899 = AXIS2_PLACEMENT_3D('',#900,#901,#902);
#900 = CARTESIAN_POINT('',(0.5,105.25,24.6));
#901 = DIRECTION('',(-0.,-0.,-1.));
#902 = DIRECTION('',(0.,-1.,0.));
#903 = CYLINDRICAL_SURFACE('',#904,1.);
#904 = AXIS2_PLACEMENT_3D('',#905,#906,#907);
#905 = CARTESIAN_POINT('',(0.5,105.25,7.6));
#906 = DIRECTION('',(0.,0.,1.));
#907 = DIRECTION('',(-1.,-0.,0.));
#908 = ADVANCED_FACE('',(#909),#927,.T.);
#909 = FACE_BOUND('',#910,.T.);
#910 = EDGE_LOOP('',(#911,#919,#925,#926));
#911 = ORIENTED_EDGE('',*,*,#912,.F.);
#912 = EDGE_CURVE('',#913,#888,#915,.T.);
#913 = VERTEX_POINT('',#914);
#914 = CARTESIAN_POINT('',(-0.5,0.5,24.6));
#915 = LINE('',#916,#917);
#916 = CARTESIAN_POINT('',(-0.5,-0.5,24.6));
#917 = VECTOR('',#918,1.);
#918 = DIRECTION('',(-0.,1.,0.));
#919 = ORIENTED_EDGE('',*,*,#920,.F.);
#920 = EDGE_CURVE('',#249,#913,#921,.T.);
#921 = LINE('',#922,#923);
#922 = CARTESIAN_POINT('',(-0.5,0.5,7.6));
#923 = VECTOR('',#924,1.);
#924 = DIRECTION('',(0.,0.,1.));
#925 = ORIENTED_EDGE('',*,*,#257,.T.);
#926 = ORIENTED_EDGE('',*,*,#887,.T.);
#927 = PLANE('',#928);
#928 = AXIS2_PLACEMENT_3D('',#929,#930,#931);
#929 = CARTESIAN_POINT('',(-0.5,-0.5,7.6));
#930 = DIRECTION('',(1.,0.,-0.));
#931 = DIRECTION('',(0.,0.,1.));
#932 = ADVANCED_FACE('',(#933),#952,.F.);
#933 = FACE_BOUND('',#934,.F.);
#934 = EDGE_LOOP('',(#935,#936,#937,#945));
#935 = ORIENTED_EDGE('',*,*,#920,.F.);
#936 = ORIENTED_EDGE('',*,*,#248,.T.);
#937 = ORIENTED_EDGE('',*,*,#938,.T.);
#938 = EDGE_CURVE('',#241,#939,#941,.T.);
#939 = VERTEX_POINT('',#940);
#940 = CARTESIAN_POINT('',(0.5,-0.5,24.6));
#941 = LINE('',#942,#943);
#942 = CARTESIAN_POINT('',(0.5,-0.5,7.6));
#943 = VECTOR('',#944,1.);
#944 = DIRECTION('',(0.,0.,1.));
#945 = ORIENTED_EDGE('',*,*,#946,.F.);
#946 = EDGE_CURVE('',#913,#939,#947,.T.);
#947 = CIRCLE('',#948,1.);
#948 = AXIS2_PLACEMENT_3D('',#949,#950,#951);
#949 = CARTESIAN_POINT('',(0.5,0.5,24.6));
#950 = DIRECTION('',(0.,0.,1.));
#951 = DIRECTION('',(0.,-1.,0.));
#952 = CYLINDRICAL_SURFACE('',#953,1.);
#953 = AXIS2_PLACEMENT_3D('',#954,#955,#956);
#954 = CARTESIAN_POINT('',(0.5,0.5,7.6));
#955 = DIRECTION('',(0.,0.,1.));
#956 = DIRECTION('',(-1.,-0.,0.));
#957 = ADVANCED_FACE('',(#958),#1105,.T.);
#958 = FACE_BOUND('',#959,.T.);
#959 = EDGE_LOOP('',(#960,#970,#978,#986,#994,#1002,#1010,#1018,#1027,
    #1035,#1043,#1051,#1059,#1067,#1075,#1083,#1091,#1097,#1098,#1099));
#960 = ORIENTED_EDGE('',*,*,#961,.F.);
#961 = EDGE_CURVE('',#962,#964,#966,.T.);
#962 = VERTEX_POINT('',#963);
#963 = CARTESIAN_POINT('',(99.5,-0.5,8.6));
#964 = VERTEX_POINT('',#965);
#965 = CARTESIAN_POINT('',(99.5,-0.5,24.6));
#966 = LINE('',#967,#968);
#967 = CARTESIAN_POINT('',(99.5,-0.5,7.6));
#968 = VECTOR('',#969,1.);
#969 = DIRECTION('',(0.,0.,1.));
#970 = ORIENTED_EDGE('',*,*,#971,.T.);
#971 = EDGE_CURVE('',#962,#972,#974,.T.);
#972 = VERTEX_POINT('',#973);
#973 = CARTESIAN_POINT('',(86.715,-0.5,8.6));
#974 = LINE('',#975,#976);
#975 = CARTESIAN_POINT('',(-1.5,-0.5,8.6));
#976 = VECTOR('',#977,1.);
#977 = DIRECTION('',(-1.,-0.,0.));
#978 = ORIENTED_EDGE('',*,*,#979,.F.);
#979 = EDGE_CURVE('',#980,#972,#982,.T.);
#980 = VERTEX_POINT('',#981);
#981 = CARTESIAN_POINT('',(86.715,-0.5,22.9));
#982 = LINE('',#983,#984);
#983 = CARTESIAN_POINT('',(86.715,-0.5,8.095));
#984 = VECTOR('',#985,1.);
#985 = DIRECTION('',(-0.,0.,-1.));
#986 = ORIENTED_EDGE('',*,*,#987,.F.);
#987 = EDGE_CURVE('',#988,#980,#990,.T.);
#988 = VERTEX_POINT('',#989);
#989 = CARTESIAN_POINT('',(69.715,-0.5,22.9));
#990 = LINE('',#991,#992);
#991 = CARTESIAN_POINT('',(34.6075,-0.5,22.9));
#992 = VECTOR('',#993,1.);
#993 = DIRECTION('',(1.,0.,-0.));
#994 = ORIENTED_EDGE('',*,*,#995,.T.);
#995 = EDGE_CURVE('',#988,#996,#998,.T.);
#996 = VERTEX_POINT('',#997);
#997 = CARTESIAN_POINT('',(69.715,-0.5,8.6));
#998 = LINE('',#999,#1000);
#999 = CARTESIAN_POINT('',(69.715,-0.5,8.095));
#1000 = VECTOR('',#1001,1.);
#1001 = DIRECTION('',(-0.,0.,-1.));
#1002 = ORIENTED_EDGE('',*,*,#1003,.T.);
#1003 = EDGE_CURVE('',#996,#1004,#1006,.T.);
#1004 = VERTEX_POINT('',#1005);
#1005 = CARTESIAN_POINT('',(64.,-0.5,8.6));
#1006 = LINE('',#1007,#1008);
#1007 = CARTESIAN_POINT('',(-1.5,-0.5,8.6));
#1008 = VECTOR('',#1009,1.);
#1009 = DIRECTION('',(-1.,-0.,0.));
#1010 = ORIENTED_EDGE('',*,*,#1011,.F.);
#1011 = EDGE_CURVE('',#1012,#1004,#1014,.T.);
#1012 = VERTEX_POINT('',#1013);
#1013 = CARTESIAN_POINT('',(64.,-0.5,11.2));
#1014 = LINE('',#1015,#1016);
#1015 = CARTESIAN_POINT('',(64.,-0.5,8.525));
#1016 = VECTOR('',#1017,1.);
#1017 = DIRECTION('',(0.,0.,-1.));
#1018 = ORIENTED_EDGE('',*,*,#1019,.F.);
#1019 = EDGE_CURVE('',#1020,#1012,#1022,.T.);
#1020 = VERTEX_POINT('',#1021);
#1021 = CARTESIAN_POINT('',(57.,-0.5,11.2));
#1022 = CIRCLE('',#1023,3.5);
#1023 = AXIS2_PLACEMENT_3D('',#1024,#1025,#1026);
#1024 = CARTESIAN_POINT('',(60.5,-0.5,11.2));
#1025 = DIRECTION('',(0.,1.,0.));
#1026 = DIRECTION('',(0.,-0.,1.));
#1027 = ORIENTED_EDGE('',*,*,#1028,.F.);
#1028 = EDGE_CURVE('',#1029,#1020,#1031,.T.);
#1029 = VERTEX_POINT('',#1030);
#1030 = CARTESIAN_POINT('',(57.,-0.5,8.6));
#1031 = LINE('',#1032,#1033);
#1032 = CARTESIAN_POINT('',(57.,-0.5,8.525));
#1033 = VECTOR('',#1034,1.);
#1034 = DIRECTION('',(0.,-0.,1.));
#1035 = ORIENTED_EDGE('',*,*,#1036,.T.);
#1036 = EDGE_CURVE('',#1029,#1037,#1039,.T.);
#1037 = VERTEX_POINT('',#1038);
#1038 = CARTESIAN_POINT('',(50.9,-0.5,8.6));
#1039 = LINE('',#1040,#1041);
#1040 = CARTESIAN_POINT('',(-1.5,-0.5,8.6));
#1041 = VECTOR('',#1042,1.);
#1042 = DIRECTION('',(-1.,-0.,0.));
#1043 = ORIENTED_EDGE('',*,*,#1044,.F.);
#1044 = EDGE_CURVE('',#1045,#1037,#1047,.T.);
#1045 = VERTEX_POINT('',#1046);
#1046 = CARTESIAN_POINT('',(50.9,-0.5,22.6));
#1047 = LINE('',#1048,#1049);
#1048 = CARTESIAN_POINT('',(50.9,-0.5,8.095));
#1049 = VECTOR('',#1050,1.);
#1050 = DIRECTION('',(-0.,0.,-1.));
#1051 = ORIENTED_EDGE('',*,*,#1052,.F.);
#1052 = EDGE_CURVE('',#1053,#1045,#1055,.T.);
#1053 = VERTEX_POINT('',#1054);
#1054 = CARTESIAN_POINT('',(34.1,-0.5,22.6));
#1055 = LINE('',#1056,#1057);
#1056 = CARTESIAN_POINT('',(16.8,-0.5,22.6));
#1057 = VECTOR('',#1058,1.);
#1058 = DIRECTION('',(1.,0.,-0.));
#1059 = ORIENTED_EDGE('',*,*,#1060,.T.);
#1060 = EDGE_CURVE('',#1053,#1061,#1063,.T.);
#1061 = VERTEX_POINT('',#1062);
#1062 = CARTESIAN_POINT('',(34.1,-0.5,8.6));
#1063 = LINE('',#1064,#1065);
#1064 = CARTESIAN_POINT('',(34.1,-0.5,8.095));
#1065 = VECTOR('',#1066,1.);
#1066 = DIRECTION('',(-0.,0.,-1.));
#1067 = ORIENTED_EDGE('',*,*,#1068,.T.);
#1068 = EDGE_CURVE('',#1061,#1069,#1071,.T.);
#1069 = VERTEX_POINT('',#1070);
#1070 = CARTESIAN_POINT('',(30.9,-0.5,8.6));
#1071 = LINE('',#1072,#1073);
#1072 = CARTESIAN_POINT('',(-1.5,-0.5,8.6));
#1073 = VECTOR('',#1074,1.);
#1074 = DIRECTION('',(-1.,-0.,0.));
#1075 = ORIENTED_EDGE('',*,*,#1076,.F.);
#1076 = EDGE_CURVE('',#1077,#1069,#1079,.T.);
#1077 = VERTEX_POINT('',#1078);
#1078 = CARTESIAN_POINT('',(30.9,-0.5,22.6));
#1079 = LINE('',#1080,#1081);
#1080 = CARTESIAN_POINT('',(30.9,-0.5,8.095));
#1081 = VECTOR('',#1082,1.);
#1082 = DIRECTION('',(-0.,0.,-1.));
#1083 = ORIENTED_EDGE('',*,*,#1084,.F.);
#1084 = EDGE_CURVE('',#1085,#1077,#1087,.T.);
#1085 = VERTEX_POINT('',#1086);
#1086 = CARTESIAN_POINT('',(14.1,-0.5,22.6));
#1087 = LINE('',#1088,#1089);
#1088 = CARTESIAN_POINT('',(6.8,-0.5,22.6));
#1089 = VECTOR('',#1090,1.);
#1090 = DIRECTION('',(1.,0.,-0.));
#1091 = ORIENTED_EDGE('',*,*,#1092,.T.);
#1092 = EDGE_CURVE('',#1085,#233,#1093,.T.);
#1093 = LINE('',#1094,#1095);
#1094 = CARTESIAN_POINT('',(14.1,-0.5,8.095));
#1095 = VECTOR('',#1096,1.);
#1096 = DIRECTION('',(-0.,0.,-1.));
#1097 = ORIENTED_EDGE('',*,*,#240,.T.);
#1098 = ORIENTED_EDGE('',*,*,#938,.T.);
#1099 = ORIENTED_EDGE('',*,*,#1100,.T.);
#1100 = EDGE_CURVE('',#939,#964,#1101,.T.);
#1101 = LINE('',#1102,#1103);
#1102 = CARTESIAN_POINT('',(-0.5,-0.5,24.6));
#1103 = VECTOR('',#1104,1.);
#1104 = DIRECTION('',(1.,0.,-0.));
#1105 = PLANE('',#1106);
#1106 = AXIS2_PLACEMENT_3D('',#1107,#1108,#1109);
#1107 = CARTESIAN_POINT('',(-0.5,-0.5,7.6));
#1108 = DIRECTION('',(-0.,1.,0.));
#1109 = DIRECTION('',(0.,0.,1.));
#1110 = ADVANCED_FACE('',(#1111),#1122,.T.);
#1111 = FACE_BOUND('',#1112,.T.);
#1112 = EDGE_LOOP('',(#1113,#1119,#1120,#1121));
#1113 = ORIENTED_EDGE('',*,*,#1114,.F.);
#1114 = EDGE_CURVE('',#464,#1085,#1115,.T.);
#1115 = LINE('',#1116,#1117);
#1116 = CARTESIAN_POINT('',(14.1,-3.5,22.6));
#1117 = VECTOR('',#1118,1.);
#1118 = DIRECTION('',(-0.,1.,0.));
#1119 = ORIENTED_EDGE('',*,*,#471,.T.);
#1120 = ORIENTED_EDGE('',*,*,#232,.T.);
#1121 = ORIENTED_EDGE('',*,*,#1092,.F.);
#1122 = PLANE('',#1123);
#1123 = AXIS2_PLACEMENT_3D('',#1124,#1125,#1126);
#1124 = CARTESIAN_POINT('',(14.1,-3.5,8.59));
#1125 = DIRECTION('',(1.,0.,-0.));
#1126 = DIRECTION('',(0.,0.,1.));
#1127 = ADVANCED_FACE('',(#1128),#1139,.F.);
#1128 = FACE_BOUND('',#1129,.F.);
#1129 = EDGE_LOOP('',(#1130,#1131,#1132,#1138));
#1130 = ORIENTED_EDGE('',*,*,#1114,.F.);
#1131 = ORIENTED_EDGE('',*,*,#463,.T.);
#1132 = ORIENTED_EDGE('',*,*,#1133,.T.);
#1133 = EDGE_CURVE('',#456,#1077,#1134,.T.);
#1134 = LINE('',#1135,#1136);
#1135 = CARTESIAN_POINT('',(30.9,-3.5,22.6));
#1136 = VECTOR('',#1137,1.);
#1137 = DIRECTION('',(-0.,1.,0.));
#1138 = ORIENTED_EDGE('',*,*,#1084,.F.);
#1139 = PLANE('',#1140);
#1140 = AXIS2_PLACEMENT_3D('',#1141,#1142,#1143);
#1141 = CARTESIAN_POINT('',(14.1,-3.5,22.6));
#1142 = DIRECTION('',(0.,0.,1.));
#1143 = DIRECTION('',(1.,0.,-0.));
#1144 = ADVANCED_FACE('',(#1145),#1156,.F.);
#1145 = FACE_BOUND('',#1146,.F.);
#1146 = EDGE_LOOP('',(#1147,#1148,#1149,#1155));
#1147 = ORIENTED_EDGE('',*,*,#1133,.F.);
#1148 = ORIENTED_EDGE('',*,*,#455,.T.);
#1149 = ORIENTED_EDGE('',*,*,#1150,.T.);
#1150 = EDGE_CURVE('',#448,#1069,#1151,.T.);
#1151 = LINE('',#1152,#1153);
#1152 = CARTESIAN_POINT('',(30.9,-3.,8.6));
#1153 = VECTOR('',#1154,1.);
#1154 = DIRECTION('',(-0.,1.,0.));
#1155 = ORIENTED_EDGE('',*,*,#1076,.F.);
#1156 = PLANE('',#1157);
#1157 = AXIS2_PLACEMENT_3D('',#1158,#1159,#1160);
#1158 = CARTESIAN_POINT('',(30.9,-3.5,8.59));
#1159 = DIRECTION('',(1.,0.,-0.));
#1160 = DIRECTION('',(0.,0.,1.));
#1161 = ADVANCED_FACE('',(#1162),#1173,.F.);
#1162 = FACE_BOUND('',#1163,.F.);
#1163 = EDGE_LOOP('',(#1164,#1165,#1171,#1172));
#1164 = ORIENTED_EDGE('',*,*,#447,.T.);
#1165 = ORIENTED_EDGE('',*,*,#1166,.T.);
#1166 = EDGE_CURVE('',#440,#1061,#1167,.T.);
#1167 = LINE('',#1168,#1169);
#1168 = CARTESIAN_POINT('',(34.1,-3.,8.6));
#1169 = VECTOR('',#1170,1.);
#1170 = DIRECTION('',(-0.,1.,0.));
#1171 = ORIENTED_EDGE('',*,*,#1068,.T.);
#1172 = ORIENTED_EDGE('',*,*,#1150,.F.);
#1173 = PLANE('',#1174);
#1174 = AXIS2_PLACEMENT_3D('',#1175,#1176,#1177);
#1175 = CARTESIAN_POINT('',(-2.5,-2.5,8.6));
#1176 = DIRECTION('',(0.,0.,1.));
#1177 = DIRECTION('',(1.,0.,-0.));
#1178 = ADVANCED_FACE('',(#1179),#1190,.T.);
#1179 = FACE_BOUND('',#1180,.T.);
#1180 = EDGE_LOOP('',(#1181,#1187,#1188,#1189));
#1181 = ORIENTED_EDGE('',*,*,#1182,.F.);
#1182 = EDGE_CURVE('',#432,#1053,#1183,.T.);
#1183 = LINE('',#1184,#1185);
#1184 = CARTESIAN_POINT('',(34.1,-3.5,22.6));
#1185 = VECTOR('',#1186,1.);
#1186 = DIRECTION('',(-0.,1.,0.));
#1187 = ORIENTED_EDGE('',*,*,#439,.T.);
#1188 = ORIENTED_EDGE('',*,*,#1166,.T.);
#1189 = ORIENTED_EDGE('',*,*,#1060,.F.);
#1190 = PLANE('',#1191);
#1191 = AXIS2_PLACEMENT_3D('',#1192,#1193,#1194);
#1192 = CARTESIAN_POINT('',(34.1,-3.5,8.59));
#1193 = DIRECTION('',(1.,0.,-0.));
#1194 = DIRECTION('',(0.,0.,1.));
#1195 = ADVANCED_FACE('',(#1196),#1207,.F.);
#1196 = FACE_BOUND('',#1197,.F.);
#1197 = EDGE_LOOP('',(#1198,#1199,#1200,#1206));
#1198 = ORIENTED_EDGE('',*,*,#1182,.F.);
#1199 = ORIENTED_EDGE('',*,*,#431,.T.);
#1200 = ORIENTED_EDGE('',*,*,#1201,.T.);
#1201 = EDGE_CURVE('',#424,#1045,#1202,.T.);
#1202 = LINE('',#1203,#1204);
#1203 = CARTESIAN_POINT('',(50.9,-3.5,22.6));
#1204 = VECTOR('',#1205,1.);
#1205 = DIRECTION('',(-0.,1.,0.));
#1206 = ORIENTED_EDGE('',*,*,#1052,.F.);
#1207 = PLANE('',#1208);
#1208 = AXIS2_PLACEMENT_3D('',#1209,#1210,#1211);
#1209 = CARTESIAN_POINT('',(34.1,-3.5,22.6));
#1210 = DIRECTION('',(0.,0.,1.));
#1211 = DIRECTION('',(1.,0.,-0.));
#1212 = ADVANCED_FACE('',(#1213),#1224,.F.);
#1213 = FACE_BOUND('',#1214,.F.);
#1214 = EDGE_LOOP('',(#1215,#1216,#1217,#1223));
#1215 = ORIENTED_EDGE('',*,*,#1201,.F.);
#1216 = ORIENTED_EDGE('',*,*,#423,.T.);
#1217 = ORIENTED_EDGE('',*,*,#1218,.T.);
#1218 = EDGE_CURVE('',#416,#1037,#1219,.T.);
#1219 = LINE('',#1220,#1221);
#1220 = CARTESIAN_POINT('',(50.9,-3.,8.6));
#1221 = VECTOR('',#1222,1.);
#1222 = DIRECTION('',(-0.,1.,0.));
#1223 = ORIENTED_EDGE('',*,*,#1044,.F.);
#1224 = PLANE('',#1225);
#1225 = AXIS2_PLACEMENT_3D('',#1226,#1227,#1228);
#1226 = CARTESIAN_POINT('',(50.9,-3.5,8.59));
#1227 = DIRECTION('',(1.,0.,-0.));
#1228 = DIRECTION('',(0.,0.,1.));
#1229 = ADVANCED_FACE('',(#1230),#1241,.F.);
#1230 = FACE_BOUND('',#1231,.F.);
#1231 = EDGE_LOOP('',(#1232,#1233,#1239,#1240));
#1232 = ORIENTED_EDGE('',*,*,#415,.T.);
#1233 = ORIENTED_EDGE('',*,*,#1234,.F.);
#1234 = EDGE_CURVE('',#1029,#408,#1235,.T.);
#1235 = LINE('',#1236,#1237);
#1236 = CARTESIAN_POINT('',(57.,-1.375,8.6));
#1237 = VECTOR('',#1238,1.);
#1238 = DIRECTION('',(0.,-1.,0.));
#1239 = ORIENTED_EDGE('',*,*,#1036,.T.);
#1240 = ORIENTED_EDGE('',*,*,#1218,.F.);
#1241 = PLANE('',#1242);
#1242 = AXIS2_PLACEMENT_3D('',#1243,#1244,#1245);
#1243 = CARTESIAN_POINT('',(-2.5,-2.5,8.6));
#1244 = DIRECTION('',(0.,0.,1.));
#1245 = DIRECTION('',(1.,0.,-0.));
#1246 = ADVANCED_FACE('',(#1247),#1258,.F.);
#1247 = FACE_BOUND('',#1248,.F.);
#1248 = EDGE_LOOP('',(#1249,#1250,#1256,#1257));
#1249 = ORIENTED_EDGE('',*,*,#407,.T.);
#1250 = ORIENTED_EDGE('',*,*,#1251,.T.);
#1251 = EDGE_CURVE('',#399,#1020,#1252,.T.);
#1252 = LINE('',#1253,#1254);
#1253 = CARTESIAN_POINT('',(57.,-3.5,11.2));
#1254 = VECTOR('',#1255,1.);
#1255 = DIRECTION('',(-0.,1.,0.));
#1256 = ORIENTED_EDGE('',*,*,#1028,.F.);
#1257 = ORIENTED_EDGE('',*,*,#1234,.T.);
#1258 = PLANE('',#1259);
#1259 = AXIS2_PLACEMENT_3D('',#1260,#1261,#1262);
#1260 = CARTESIAN_POINT('',(57.,-0.25,9.45));
#1261 = DIRECTION('',(-1.,-0.,-0.));
#1262 = DIRECTION('',(0.,0.,-1.));
#1263 = ADVANCED_FACE('',(#1264),#1275,.F.);
#1264 = FACE_BOUND('',#1265,.F.);
#1265 = EDGE_LOOP('',(#1266,#1267,#1273,#1274));
#1266 = ORIENTED_EDGE('',*,*,#398,.T.);
#1267 = ORIENTED_EDGE('',*,*,#1268,.T.);
#1268 = EDGE_CURVE('',#391,#1012,#1269,.T.);
#1269 = LINE('',#1270,#1271);
#1270 = CARTESIAN_POINT('',(64.,-3.5,11.2));
#1271 = VECTOR('',#1272,1.);
#1272 = DIRECTION('',(-0.,1.,0.));
#1273 = ORIENTED_EDGE('',*,*,#1019,.F.);
#1274 = ORIENTED_EDGE('',*,*,#1251,.F.);
#1275 = CYLINDRICAL_SURFACE('',#1276,3.5);
#1276 = AXIS2_PLACEMENT_3D('',#1277,#1278,#1279);
#1277 = CARTESIAN_POINT('',(60.5,-3.5,11.2));
#1278 = DIRECTION('',(0.,1.,0.));
#1279 = DIRECTION('',(0.,-0.,1.));
#1280 = ADVANCED_FACE('',(#1281),#1292,.F.);
#1281 = FACE_BOUND('',#1282,.F.);
#1282 = EDGE_LOOP('',(#1283,#1284,#1285,#1291));
#1283 = ORIENTED_EDGE('',*,*,#1268,.F.);
#1284 = ORIENTED_EDGE('',*,*,#390,.T.);
#1285 = ORIENTED_EDGE('',*,*,#1286,.T.);
#1286 = EDGE_CURVE('',#383,#1004,#1287,.T.);
#1287 = LINE('',#1288,#1289);
#1288 = CARTESIAN_POINT('',(64.,-1.375,8.6));
#1289 = VECTOR('',#1290,1.);
#1290 = DIRECTION('',(0.,1.,0.));
#1291 = ORIENTED_EDGE('',*,*,#1011,.F.);
#1292 = PLANE('',#1293);
#1293 = AXIS2_PLACEMENT_3D('',#1294,#1295,#1296);
#1294 = CARTESIAN_POINT('',(64.,-0.25,9.45));
#1295 = DIRECTION('',(1.,0.,0.));
#1296 = DIRECTION('',(-0.,0.,1.));
#1297 = ADVANCED_FACE('',(#1298),#1309,.F.);
#1298 = FACE_BOUND('',#1299,.F.);
#1299 = EDGE_LOOP('',(#1300,#1301,#1307,#1308));
#1300 = ORIENTED_EDGE('',*,*,#382,.T.);
#1301 = ORIENTED_EDGE('',*,*,#1302,.T.);
#1302 = EDGE_CURVE('',#375,#996,#1303,.T.);
#1303 = LINE('',#1304,#1305);
#1304 = CARTESIAN_POINT('',(69.715,-3.,8.6));
#1305 = VECTOR('',#1306,1.);
#1306 = DIRECTION('',(-0.,1.,0.));
#1307 = ORIENTED_EDGE('',*,*,#1003,.T.);
#1308 = ORIENTED_EDGE('',*,*,#1286,.F.);
#1309 = PLANE('',#1310);
#1310 = AXIS2_PLACEMENT_3D('',#1311,#1312,#1313);
#1311 = CARTESIAN_POINT('',(-2.5,-2.5,8.6));
#1312 = DIRECTION('',(0.,0.,1.));
#1313 = DIRECTION('',(1.,0.,-0.));
#1314 = ADVANCED_FACE('',(#1315),#1326,.T.);
#1315 = FACE_BOUND('',#1316,.T.);
#1316 = EDGE_LOOP('',(#1317,#1323,#1324,#1325));
#1317 = ORIENTED_EDGE('',*,*,#1318,.F.);
#1318 = EDGE_CURVE('',#367,#988,#1319,.T.);
#1319 = LINE('',#1320,#1321);
#1320 = CARTESIAN_POINT('',(69.715,-3.5,22.9));
#1321 = VECTOR('',#1322,1.);
#1322 = DIRECTION('',(-0.,1.,0.));
#1323 = ORIENTED_EDGE('',*,*,#374,.T.);
#1324 = ORIENTED_EDGE('',*,*,#1302,.T.);
#1325 = ORIENTED_EDGE('',*,*,#995,.F.);
#1326 = PLANE('',#1327);
#1327 = AXIS2_PLACEMENT_3D('',#1328,#1329,#1330);
#1328 = CARTESIAN_POINT('',(69.715,-3.5,8.59));
#1329 = DIRECTION('',(1.,0.,-0.));
#1330 = DIRECTION('',(0.,0.,1.));
#1331 = ADVANCED_FACE('',(#1332),#1343,.F.);
#1332 = FACE_BOUND('',#1333,.F.);
#1333 = EDGE_LOOP('',(#1334,#1335,#1336,#1342));
#1334 = ORIENTED_EDGE('',*,*,#1318,.F.);
#1335 = ORIENTED_EDGE('',*,*,#366,.T.);
#1336 = ORIENTED_EDGE('',*,*,#1337,.T.);
#1337 = EDGE_CURVE('',#359,#980,#1338,.T.);
#1338 = LINE('',#1339,#1340);
#1339 = CARTESIAN_POINT('',(86.715,-3.5,22.9));
#1340 = VECTOR('',#1341,1.);
#1341 = DIRECTION('',(-0.,1.,0.));
#1342 = ORIENTED_EDGE('',*,*,#987,.F.);
#1343 = PLANE('',#1344);
#1344 = AXIS2_PLACEMENT_3D('',#1345,#1346,#1347);
#1345 = CARTESIAN_POINT('',(69.715,-3.5,22.9));
#1346 = DIRECTION('',(0.,0.,1.));
#1347 = DIRECTION('',(1.,0.,-0.));
#1348 = ADVANCED_FACE('',(#1349),#1360,.F.);
#1349 = FACE_BOUND('',#1350,.F.);
#1350 = EDGE_LOOP('',(#1351,#1352,#1353,#1359));
#1351 = ORIENTED_EDGE('',*,*,#1337,.F.);
#1352 = ORIENTED_EDGE('',*,*,#358,.T.);
#1353 = ORIENTED_EDGE('',*,*,#1354,.T.);
#1354 = EDGE_CURVE('',#351,#972,#1355,.T.);
#1355 = LINE('',#1356,#1357);
#1356 = CARTESIAN_POINT('',(86.715,-3.,8.6));
#1357 = VECTOR('',#1358,1.);
#1358 = DIRECTION('',(-0.,1.,0.));
#1359 = ORIENTED_EDGE('',*,*,#979,.F.);
#1360 = PLANE('',#1361);
#1361 = AXIS2_PLACEMENT_3D('',#1362,#1363,#1364);
#1362 = CARTESIAN_POINT('',(86.715,-3.5,8.59));
#1363 = DIRECTION('',(1.,0.,-0.));
#1364 = DIRECTION('',(0.,0.,1.));
#1365 = ADVANCED_FACE('',(#1366),#1387,.F.);
#1366 = FACE_BOUND('',#1367,.F.);
#1367 = EDGE_LOOP('',(#1368,#1369,#1375,#1376,#1383,#1384,#1385,#1386));
#1368 = ORIENTED_EDGE('',*,*,#546,.T.);
#1369 = ORIENTED_EDGE('',*,*,#1370,.F.);
#1370 = EDGE_CURVE('',#766,#547,#1371,.T.);
#1371 = LINE('',#1372,#1373);
#1372 = CARTESIAN_POINT('',(97.5,78.540681914258,8.6));
#1373 = VECTOR('',#1374,1.);
#1374 = DIRECTION('',(1.,0.,2.22044604925E-16));
#1375 = ORIENTED_EDGE('',*,*,#765,.F.);
#1376 = ORIENTED_EDGE('',*,*,#1377,.F.);
#1377 = EDGE_CURVE('',#962,#758,#1378,.T.);
#1378 = CIRCLE('',#1379,1.);
#1379 = AXIS2_PLACEMENT_3D('',#1380,#1381,#1382);
#1380 = CARTESIAN_POINT('',(99.5,0.5,8.6));
#1381 = DIRECTION('',(0.,0.,1.));
#1382 = DIRECTION('',(1.,0.,-0.));
#1383 = ORIENTED_EDGE('',*,*,#971,.T.);
#1384 = ORIENTED_EDGE('',*,*,#1354,.F.);
#1385 = ORIENTED_EDGE('',*,*,#350,.T.);
#1386 = ORIENTED_EDGE('',*,*,#502,.F.);
#1387 = PLANE('',#1388);
#1388 = AXIS2_PLACEMENT_3D('',#1389,#1390,#1391);
#1389 = CARTESIAN_POINT('',(-2.5,-2.5,8.6));
#1390 = DIRECTION('',(0.,0.,1.));
#1391 = DIRECTION('',(1.,0.,-0.));
#1392 = ADVANCED_FACE('',(#1393),#1404,.F.);
#1393 = FACE_BOUND('',#1394,.F.);
#1394 = EDGE_LOOP('',(#1395,#1396,#1402,#1403));
#1395 = ORIENTED_EDGE('',*,*,#816,.T.);
#1396 = ORIENTED_EDGE('',*,*,#1397,.T.);
#1397 = EDGE_CURVE('',#808,#589,#1398,.T.);
#1398 = LINE('',#1399,#1400);
#1399 = CARTESIAN_POINT('',(97.5,90.96,11.23));
#1400 = VECTOR('',#1401,1.);
#1401 = DIRECTION('',(1.,0.,2.22044604925E-16));
#1402 = ORIENTED_EDGE('',*,*,#597,.F.);
#1403 = ORIENTED_EDGE('',*,*,#731,.F.);
#1404 = PLANE('',#1405);
#1405 = AXIS2_PLACEMENT_3D('',#1406,#1407,#1408);
#1406 = CARTESIAN_POINT('',(97.5,90.96,13.73));
#1407 = DIRECTION('',(0.,1.,0.));
#1408 = DIRECTION('',(1.,0.,2.22044604925E-16));
#1409 = ADVANCED_FACE('',(#1410),#1421,.F.);
#1410 = FACE_BOUND('',#1411,.T.);
#1411 = EDGE_LOOP('',(#1412,#1418,#1419,#1420));
#1412 = ORIENTED_EDGE('',*,*,#1413,.F.);
#1413 = EDGE_CURVE('',#800,#581,#1414,.T.);
#1414 = LINE('',#1415,#1416);
#1415 = CARTESIAN_POINT('',(97.5,88.46,13.73));
#1416 = VECTOR('',#1417,1.);
#1417 = DIRECTION('',(1.,0.,2.22044604925E-16));
#1418 = ORIENTED_EDGE('',*,*,#807,.F.);
#1419 = ORIENTED_EDGE('',*,*,#1397,.T.);
#1420 = ORIENTED_EDGE('',*,*,#588,.T.);
#1421 = CYLINDRICAL_SURFACE('',#1422,2.5);
#1422 = AXIS2_PLACEMENT_3D('',#1423,#1424,#1425);
#1423 = CARTESIAN_POINT('',(97.5,88.46,11.23));
#1424 = DIRECTION('',(1.,0.,2.22044604925E-16));
#1425 = DIRECTION('',(-2.22044604925E-16,0.,1.));
#1426 = ADVANCED_FACE('',(#1427),#1438,.T.);
#1427 = FACE_BOUND('',#1428,.T.);
#1428 = EDGE_LOOP('',(#1429,#1430,#1436,#1437));
#1429 = ORIENTED_EDGE('',*,*,#580,.F.);
#1430 = ORIENTED_EDGE('',*,*,#1431,.F.);
#1431 = EDGE_CURVE('',#791,#572,#1432,.T.);
#1432 = LINE('',#1433,#1434);
#1433 = CARTESIAN_POINT('',(97.5,80.96,13.73));
#1434 = VECTOR('',#1435,1.);
#1435 = DIRECTION('',(1.,0.,2.22044604925E-16));
#1436 = ORIENTED_EDGE('',*,*,#799,.T.);
#1437 = ORIENTED_EDGE('',*,*,#1413,.T.);
#1438 = PLANE('',#1439);
#1439 = AXIS2_PLACEMENT_3D('',#1440,#1441,#1442);
#1440 = CARTESIAN_POINT('',(97.5,78.46,13.73));
#1441 = DIRECTION('',(2.22044604925E-16,0.,-1.));
#1442 = DIRECTION('',(1.,0.,2.22044604925E-16));
#1443 = ADVANCED_FACE('',(#1444),#1455,.F.);
#1444 = FACE_BOUND('',#1445,.F.);
#1445 = EDGE_LOOP('',(#1446,#1447,#1448,#1454));
#1446 = ORIENTED_EDGE('',*,*,#1431,.F.);
#1447 = ORIENTED_EDGE('',*,*,#790,.T.);
#1448 = ORIENTED_EDGE('',*,*,#1449,.T.);
#1449 = EDGE_CURVE('',#783,#564,#1450,.T.);
#1450 = LINE('',#1451,#1452);
#1451 = CARTESIAN_POINT('',(97.5,78.46,11.23));
#1452 = VECTOR('',#1453,1.);
#1453 = DIRECTION('',(1.,0.,2.22044604925E-16));
#1454 = ORIENTED_EDGE('',*,*,#571,.F.);
#1455 = CYLINDRICAL_SURFACE('',#1456,2.5);
#1456 = AXIS2_PLACEMENT_3D('',#1457,#1458,#1459);
#1457 = CARTESIAN_POINT('',(97.5,80.96,11.23));
#1458 = DIRECTION('',(1.,0.,2.22044604925E-16));
#1459 = DIRECTION('',(-2.22044604925E-16,0.,1.));
#1460 = ADVANCED_FACE('',(#1461),#1472,.T.);
#1461 = FACE_BOUND('',#1462,.T.);
#1462 = EDGE_LOOP('',(#1463,#1464,#1465,#1466));
#1463 = ORIENTED_EDGE('',*,*,#782,.T.);
#1464 = ORIENTED_EDGE('',*,*,#1449,.T.);
#1465 = ORIENTED_EDGE('',*,*,#563,.F.);
#1466 = ORIENTED_EDGE('',*,*,#1467,.F.);
#1467 = EDGE_CURVE('',#774,#555,#1468,.T.);
#1468 = LINE('',#1469,#1470);
#1469 = CARTESIAN_POINT('',(97.5,78.46,9.23));
#1470 = VECTOR('',#1471,1.);
#1471 = DIRECTION('',(1.,0.,2.22044604925E-16));
#1472 = PLANE('',#1473);
#1473 = AXIS2_PLACEMENT_3D('',#1474,#1475,#1476);
#1474 = CARTESIAN_POINT('',(97.5,78.46,13.73));
#1475 = DIRECTION('',(0.,1.,0.));
#1476 = DIRECTION('',(1.,0.,2.22044604925E-16));
#1477 = ADVANCED_FACE('',(#1478),#1484,.F.);
#1478 = FACE_BOUND('',#1479,.T.);
#1479 = EDGE_LOOP('',(#1480,#1481,#1482,#1483));
#1480 = ORIENTED_EDGE('',*,*,#773,.F.);
#1481 = ORIENTED_EDGE('',*,*,#1467,.T.);
#1482 = ORIENTED_EDGE('',*,*,#554,.T.);
#1483 = ORIENTED_EDGE('',*,*,#1370,.F.);
#1484 = CYLINDRICAL_SURFACE('',#1485,2.5);
#1485 = AXIS2_PLACEMENT_3D('',#1486,#1487,#1488);
#1486 = CARTESIAN_POINT('',(97.5,80.96,9.23));
#1487 = DIRECTION('',(1.,0.,2.22044604925E-16));
#1488 = DIRECTION('',(2.22044604925E-16,0.,-1.));
#1489 = ADVANCED_FACE('',(#1490,#1501),#1504,.F.);
#1490 = FACE_BOUND('',#1491,.F.);
#1491 = EDGE_LOOP('',(#1492));
#1492 = ORIENTED_EDGE('',*,*,#1493,.T.);
#1493 = EDGE_CURVE('',#1494,#1494,#1496,.T.);
#1494 = VERTEX_POINT('',#1495);
#1495 = CARTESIAN_POINT('',(9.5,5.5,8.6));
#1496 = CIRCLE('',#1497,4.);
#1497 = AXIS2_PLACEMENT_3D('',#1498,#1499,#1500);
#1498 = CARTESIAN_POINT('',(5.5,5.5,8.6));
#1499 = DIRECTION('',(0.,0.,1.));
#1500 = DIRECTION('',(1.,0.,-0.));
#1501 = FACE_BOUND('',#1502,.F.);
#1502 = EDGE_LOOP('',(#1503));
#1503 = ORIENTED_EDGE('',*,*,#631,.F.);
#1504 = PLANE('',#1505);
#1505 = AXIS2_PLACEMENT_3D('',#1506,#1507,#1508);
#1506 = CARTESIAN_POINT('',(5.5,5.5,8.6));
#1507 = DIRECTION('',(0.,0.,1.));
#1508 = DIRECTION('',(1.,0.,-0.));
#1509 = ADVANCED_FACE('',(#1510,#1521),#1524,.F.);
#1510 = FACE_BOUND('',#1511,.F.);
#1511 = EDGE_LOOP('',(#1512));
#1512 = ORIENTED_EDGE('',*,*,#1513,.T.);
#1513 = EDGE_CURVE('',#1514,#1514,#1516,.T.);
#1514 = VERTEX_POINT('',#1515);
#1515 = CARTESIAN_POINT('',(98.5,5.5,8.6));
#1516 = CIRCLE('',#1517,4.);
#1517 = AXIS2_PLACEMENT_3D('',#1518,#1519,#1520);
#1518 = CARTESIAN_POINT('',(94.5,5.5,8.6));
#1519 = DIRECTION('',(0.,0.,1.));
#1520 = DIRECTION('',(1.,0.,-0.));
#1521 = FACE_BOUND('',#1522,.F.);
#1522 = EDGE_LOOP('',(#1523));
#1523 = ORIENTED_EDGE('',*,*,#656,.F.);
#1524 = PLANE('',#1525);
#1525 = AXIS2_PLACEMENT_3D('',#1526,#1527,#1528);
#1526 = CARTESIAN_POINT('',(94.5,5.5,8.6));
#1527 = DIRECTION('',(0.,0.,1.));
#1528 = DIRECTION('',(1.,0.,-0.));
#1529 = ADVANCED_FACE('',(#1530,#1541),#1544,.F.);
#1530 = FACE_BOUND('',#1531,.F.);
#1531 = EDGE_LOOP('',(#1532));
#1532 = ORIENTED_EDGE('',*,*,#1533,.T.);
#1533 = EDGE_CURVE('',#1534,#1534,#1536,.T.);
#1534 = VERTEX_POINT('',#1535);
#1535 = CARTESIAN_POINT('',(9.5,94.5,8.6));
#1536 = CIRCLE('',#1537,4.);
#1537 = AXIS2_PLACEMENT_3D('',#1538,#1539,#1540);
#1538 = CARTESIAN_POINT('',(5.5,94.5,8.6));
#1539 = DIRECTION('',(0.,0.,1.));
#1540 = DIRECTION('',(1.,0.,-0.));
#1541 = FACE_BOUND('',#1542,.F.);
#1542 = EDGE_LOOP('',(#1543));
#1543 = ORIENTED_EDGE('',*,*,#681,.F.);
#1544 = PLANE('',#1545);
#1545 = AXIS2_PLACEMENT_3D('',#1546,#1547,#1548);
#1546 = CARTESIAN_POINT('',(5.5,94.5,8.6));
#1547 = DIRECTION('',(0.,0.,1.));
#1548 = DIRECTION('',(1.,0.,-0.));
#1549 = ADVANCED_FACE('',(#1550,#1561),#1564,.F.);
#1550 = FACE_BOUND('',#1551,.F.);
#1551 = EDGE_LOOP('',(#1552));
#1552 = ORIENTED_EDGE('',*,*,#1553,.T.);
#1553 = EDGE_CURVE('',#1554,#1554,#1556,.T.);
#1554 = VERTEX_POINT('',#1555);
#1555 = CARTESIAN_POINT('',(98.5,94.5,8.6));
#1556 = CIRCLE('',#1557,4.);
#1557 = AXIS2_PLACEMENT_3D('',#1558,#1559,#1560);
#1558 = CARTESIAN_POINT('',(94.5,94.5,8.6));
#1559 = DIRECTION('',(0.,0.,1.));
#1560 = DIRECTION('',(1.,0.,-0.));
#1561 = FACE_BOUND('',#1562,.F.);
#1562 = EDGE_LOOP('',(#1563));
#1563 = ORIENTED_EDGE('',*,*,#706,.F.);
#1564 = PLANE('',#1565);
#1565 = AXIS2_PLACEMENT_3D('',#1566,#1567,#1568);
#1566 = CARTESIAN_POINT('',(94.5,94.5,8.6));
#1567 = DIRECTION('',(0.,0.,1.));
#1568 = DIRECTION('',(1.,0.,-0.));
#1569 = ADVANCED_FACE('',(#1570,#1586,#1597,#1608,#1619),#1630,.F.);
#1570 = FACE_BOUND('',#1571,.F.);
#1571 = EDGE_LOOP('',(#1572,#1573,#1574,#1575,#1582,#1583,#1584,#1585));
#1572 = ORIENTED_EDGE('',*,*,#912,.F.);
#1573 = ORIENTED_EDGE('',*,*,#946,.T.);
#1574 = ORIENTED_EDGE('',*,*,#1100,.T.);
#1575 = ORIENTED_EDGE('',*,*,#1576,.F.);
#1576 = EDGE_CURVE('',#748,#964,#1577,.T.);
#1577 = CIRCLE('',#1578,1.);
#1578 = AXIS2_PLACEMENT_3D('',#1579,#1580,#1581);
#1579 = CARTESIAN_POINT('',(99.5,0.5,24.6));
#1580 = DIRECTION('',(-0.,-0.,-1.));
#1581 = DIRECTION('',(0.,-1.,0.));
#1582 = ORIENTED_EDGE('',*,*,#747,.T.);
#1583 = ORIENTED_EDGE('',*,*,#848,.T.);
#1584 = ORIENTED_EDGE('',*,*,#872,.F.);
#1585 = ORIENTED_EDGE('',*,*,#897,.F.);
#1586 = FACE_BOUND('',#1587,.F.);
#1587 = EDGE_LOOP('',(#1588));
#1588 = ORIENTED_EDGE('',*,*,#1589,.F.);
#1589 = EDGE_CURVE('',#1590,#1590,#1592,.T.);
#1590 = VERTEX_POINT('',#1591);
#1591 = CARTESIAN_POINT('',(9.5,5.5,24.6));
#1592 = CIRCLE('',#1593,4.);
#1593 = AXIS2_PLACEMENT_3D('',#1594,#1595,#1596);
#1594 = CARTESIAN_POINT('',(5.5,5.5,24.6));
#1595 = DIRECTION('',(0.,0.,1.));
#1596 = DIRECTION('',(1.,0.,-0.));
#1597 = FACE_BOUND('',#1598,.F.);
#1598 = EDGE_LOOP('',(#1599));
#1599 = ORIENTED_EDGE('',*,*,#1600,.F.);
#1600 = EDGE_CURVE('',#1601,#1601,#1603,.T.);
#1601 = VERTEX_POINT('',#1602);
#1602 = CARTESIAN_POINT('',(98.5,5.5,24.6));
#1603 = CIRCLE('',#1604,4.);
#1604 = AXIS2_PLACEMENT_3D('',#1605,#1606,#1607);
#1605 = CARTESIAN_POINT('',(94.5,5.5,24.6));
#1606 = DIRECTION('',(0.,0.,1.));
#1607 = DIRECTION('',(1.,0.,-0.));
#1608 = FACE_BOUND('',#1609,.F.);
#1609 = EDGE_LOOP('',(#1610));
#1610 = ORIENTED_EDGE('',*,*,#1611,.F.);
#1611 = EDGE_CURVE('',#1612,#1612,#1614,.T.);
#1612 = VERTEX_POINT('',#1613);
#1613 = CARTESIAN_POINT('',(9.5,94.5,24.6));
#1614 = CIRCLE('',#1615,4.);
#1615 = AXIS2_PLACEMENT_3D('',#1616,#1617,#1618);
#1616 = CARTESIAN_POINT('',(5.5,94.5,24.6));
#1617 = DIRECTION('',(0.,0.,1.));
#1618 = DIRECTION('',(1.,0.,-0.));
#1619 = FACE_BOUND('',#1620,.F.);
#1620 = EDGE_LOOP('',(#1621));
#1621 = ORIENTED_EDGE('',*,*,#1622,.F.);
#1622 = EDGE_CURVE('',#1623,#1623,#1625,.T.);
#1623 = VERTEX_POINT('',#1624);
#1624 = CARTESIAN_POINT('',(98.5,94.5,24.6));
#1625 = CIRCLE('',#1626,4.);
#1626 = AXIS2_PLACEMENT_3D('',#1627,#1628,#1629);
#1627 = CARTESIAN_POINT('',(94.5,94.5,24.6));
#1628 = DIRECTION('',(0.,0.,1.));
#1629 = DIRECTION('',(1.,0.,-0.));
#1630 = PLANE('',#1631);
#1631 = AXIS2_PLACEMENT_3D('',#1632,#1633,#1634);
#1632 = CARTESIAN_POINT('',(-0.5,-0.5,24.6));
#1633 = DIRECTION('',(0.,0.,1.));
#1634 = DIRECTION('',(1.,0.,-0.));
#1635 = ADVANCED_FACE('',(#1636),#1642,.F.);
#1636 = FACE_BOUND('',#1637,.T.);
#1637 = EDGE_LOOP('',(#1638,#1639,#1640,#1641));
#1638 = ORIENTED_EDGE('',*,*,#757,.F.);
#1639 = ORIENTED_EDGE('',*,*,#1377,.F.);
#1640 = ORIENTED_EDGE('',*,*,#961,.T.);
#1641 = ORIENTED_EDGE('',*,*,#1576,.F.);
#1642 = CYLINDRICAL_SURFACE('',#1643,1.);
#1643 = AXIS2_PLACEMENT_3D('',#1644,#1645,#1646);
#1644 = CARTESIAN_POINT('',(99.5,0.5,7.6));
#1645 = DIRECTION('',(0.,0.,1.));
#1646 = DIRECTION('',(1.,0.,-0.));
#1647 = ADVANCED_FACE('',(#1648),#1659,.T.);
#1648 = FACE_BOUND('',#1649,.T.);
#1649 = EDGE_LOOP('',(#1650,#1651,#1657,#1658));
#1650 = ORIENTED_EDGE('',*,*,#1589,.F.);
#1651 = ORIENTED_EDGE('',*,*,#1652,.F.);
#1652 = EDGE_CURVE('',#1494,#1590,#1653,.T.);
#1653 = LINE('',#1654,#1655);
#1654 = CARTESIAN_POINT('',(9.5,5.5,8.6));
#1655 = VECTOR('',#1656,1.);
#1656 = DIRECTION('',(0.,0.,1.));
#1657 = ORIENTED_EDGE('',*,*,#1493,.T.);
#1658 = ORIENTED_EDGE('',*,*,#1652,.T.);
#1659 = CYLINDRICAL_SURFACE('',#1660,4.);
#1660 = AXIS2_PLACEMENT_3D('',#1661,#1662,#1663);
#1661 = CARTESIAN_POINT('',(5.5,5.5,8.6));
#1662 = DIRECTION('',(0.,0.,1.));
#1663 = DIRECTION('',(1.,0.,-0.));
#1664 = ADVANCED_FACE('',(#1665),#1676,.T.);
#1665 = FACE_BOUND('',#1666,.T.);
#1666 = EDGE_LOOP('',(#1667,#1668,#1674,#1675));
#1667 = ORIENTED_EDGE('',*,*,#1600,.F.);
#1668 = ORIENTED_EDGE('',*,*,#1669,.F.);
#1669 = EDGE_CURVE('',#1514,#1601,#1670,.T.);
#1670 = LINE('',#1671,#1672);
#1671 = CARTESIAN_POINT('',(98.5,5.5,8.6));
#1672 = VECTOR('',#1673,1.);
#1673 = DIRECTION('',(0.,0.,1.));
#1674 = ORIENTED_EDGE('',*,*,#1513,.T.);
#1675 = ORIENTED_EDGE('',*,*,#1669,.T.);
#1676 = CYLINDRICAL_SURFACE('',#1677,4.);
#1677 = AXIS2_PLACEMENT_3D('',#1678,#1679,#1680);
#1678 = CARTESIAN_POINT('',(94.5,5.5,8.6));
#1679 = DIRECTION('',(0.,0.,1.));
#1680 = DIRECTION('',(1.,0.,-0.));
#1681 = ADVANCED_FACE('',(#1682),#1693,.T.);
#1682 = FACE_BOUND('',#1683,.T.);
#1683 = EDGE_LOOP('',(#1684,#1685,#1691,#1692));
#1684 = ORIENTED_EDGE('',*,*,#1611,.F.);
#1685 = ORIENTED_EDGE('',*,*,#1686,.F.);
#1686 = EDGE_CURVE('',#1534,#1612,#1687,.T.);
#1687 = LINE('',#1688,#1689);
#1688 = CARTESIAN_POINT('',(9.5,94.5,8.6));
#1689 = VECTOR('',#1690,1.);
#1690 = DIRECTION('',(0.,0.,1.));
#1691 = ORIENTED_EDGE('',*,*,#1533,.T.);
#1692 = ORIENTED_EDGE('',*,*,#1686,.T.);
#1693 = CYLINDRICAL_SURFACE('',#1694,4.);
#1694 = AXIS2_PLACEMENT_3D('',#1695,#1696,#1697);
#1695 = CARTESIAN_POINT('',(5.5,94.5,8.6));
#1696 = DIRECTION('',(0.,0.,1.));
#1697 = DIRECTION('',(1.,0.,-0.));
#1698 = ADVANCED_FACE('',(#1699),#1710,.T.);
#1699 = FACE_BOUND('',#1700,.T.);
#1700 = EDGE_LOOP('',(#1701,#1702,#1708,#1709));
#1701 = ORIENTED_EDGE('',*,*,#1622,.F.);
#1702 = ORIENTED_EDGE('',*,*,#1703,.F.);
#1703 = EDGE_CURVE('',#1554,#1623,#1704,.T.);
#1704 = LINE('',#1705,#1706);
#1705 = CARTESIAN_POINT('',(98.5,94.5,8.6));
#1706 = VECTOR('',#1707,1.);
#1707 = DIRECTION('',(0.,0.,1.));
#1708 = ORIENTED_EDGE('',*,*,#1553,.T.);
#1709 = ORIENTED_EDGE('',*,*,#1703,.T.);
#1710 = CYLINDRICAL_SURFACE('',#1711,4.);
#1711 = AXIS2_PLACEMENT_3D('',#1712,#1713,#1714);
#1712 = CARTESIAN_POINT('',(94.5,94.5,8.6));
#1713 = DIRECTION('',(0.,0.,1.));
#1714 = DIRECTION('',(1.,0.,-0.));
#1715 = ( GEOMETRIC_REPRESENTATION_CONTEXT(3) 
GLOBAL_UNCERTAINTY_ASSIGNED_CONTEXT((#1719)) 
GLOBAL_UNIT_ASSIGNED_CONTEXT((#1716,#1717,#1718)) REPRESENTATION_CONTEXT
('Context #1','3D Context with UNIT and UNCERTAINTY') );
#1716 = ( LENGTH_UNIT() NAMED_UNIT(*) SI_UNIT(.MILLI.,.METRE.) );
#1717 = ( NAMED_UNIT(*) PLANE_ANGLE_UNIT() SI_UNIT($,.RADIAN.) );
#1718 = ( NAMED_UNIT(*) SI_UNIT($,.STERADIAN.) SOLID_ANGLE_UNIT() );
#1719 = UNCERTAINTY_MEASURE_WITH_UNIT(LENGTH_MEASURE(1.E-07),#1716,
  'distance_accuracy_value','confusion accuracy');
#1720 = PRODUCT_RELATED_PRODUCT_CATEGORY('part',$,(#7));
ENDSEC;
END-ISO-10303-21;
