<svg xmlns="http://www.w3.org/2000/svg" viewBox="0 0 32 32">
  <!-- One target plate face-on, half-turned and edge-on, turning counter-clockwise
       seen from above. The master: `npm run icons` derives the other icons from it. -->
  <style>.mark { fill: #ffffff }</style>
  <g class="mark" fill-rule="evenodd">
    <path d="M2.5 3h8A1.5 1.5 0 0 1 12 4.5v23a1.5 1.5 0 0 1-1.5 1.5h-8A1.5 1.5 0 0 1 1 27.5v-23A1.5 1.5 0 0 1 2.5 3Z
             M2.9 12.9a3.6 3.6 0 1 0 7.2 0a3.6 3.6 0 1 0-7.2 0Z
             M4.9 12.9a1.6 1.6 0 1 0 3.2 0a1.6 1.6 0 1 0-3.2 0Z" />
    <path d="M15.7 2.97 22.3 5.53Q23.5 6 23.5 7.5v17Q23.5 26 22.3 26.47L15.7 29.03Q14.5 29.5 14.5 28V4Q14.5 2.5 15.7 2.97Z
             M16.8 13.2a2.5 4.8 0 1 0 5 0a2.5 4.8 0 1 0-5 0Z
             M18.15 13.2a1.1 2.15 0 1 0 2.2 0a1.1 2.15 0 1 0-2.2 0Z" />
    <rect x="26.5" y="3" width="3.5" height="26" rx="1" />
  </g>
</svg>
